<?xml version="1.0" encoding="utf-8"?>
<!-- Generator: Adobe Illustrator 16.0.0, SVG Export Plug-In . SVG Version: 6.00 Build 0)  -->
<!DOCTYPE svg PUBLIC "-//W3C//DTD SVG 1.1//EN" "http://www.w3.org/Graphics/SVG/1.1/DTD/svg11.dtd">
<svg version="1.1" id="Artaste_Logo_1_" xmlns="http://www.w3.org/2000/svg" xmlns:xlink="http://www.w3.org/1999/xlink" x="0px"
	 y="0px" width="500px" height="126px" viewBox="0 0 500 126" style="enable-background:new 0 0 500 126;" xml:space="preserve">
<style type="text/css">
<![CDATA[
	.st0{fill:#FFFFFF;}
]]>
</style>
<g id="Artaste_Logo">
	<path id="T_2_" class="st0" d="M285.7,29.1c-3.3,4.4-9.7,13.6-19.3,27.5h10.9c1.2,0,1.9,0.3,2.1,0.9c0.1,0.6-0.3,1.3-1.2,2
		c-0.9,0.7-1.9,1-3.1,1h-11.4c-1.7,2.7-4.4,6.9-8.2,12.5c-12.8,19.3-19.8,32.4-20.9,39.2c-0.6,3,0.3,4.5,2.7,4.5
		c0.8,0,1.6-0.2,2.5-0.6c4.9-1.9,11-5.9,18.2-11.9c9.1-7.3,15.1-12.9,18.2-16.8c1-1.3,2-1.4,3.1-0.2c0.5,0.7,0.2,1.7-0.7,2.9
		c-4.3,5.2-11,11.3-20.2,18.2c-13.1,9.8-22.3,14.4-27.3,13.7c-5.5-0.7-8.2-3.7-8.2-8.9c0-1.1,0.2-2.3,0.4-3.6
		c1.2-5.1,3.7-10.7,7.6-16.8c2.5-3.8,7.8-11.1,15.8-21.8c1.7-2.3,4.3-5.8,7.8-10.4h-10.5c-1.3,0-1.9-0.4-1.9-1
		c-0.1-0.7,0.3-1.4,1.2-2c0.9-0.6,1.9-0.9,3.1-0.9h11.1c12.2-15.9,20-25.2,23.3-27.8c1.3-1.1,2.8-1.3,4.5-0.6
		C285.9,28.4,286,28.7,285.7,29.1z"/>
	<path id="T_1_" class="st0" d="M445,29.1c-3.3,4.4-9.7,13.6-19.3,27.5h10.9c1.2,0,1.9,0.3,2.1,0.9c0.1,0.6-0.3,1.3-1.2,2
		c-0.9,0.7-1.9,1-3.1,1h-11.4c-1.7,2.7-4.4,6.9-8.2,12.5c-12.8,19.3-19.8,32.4-20.9,39.2c-0.6,3,0.3,4.5,2.7,4.5
		c0.8,0,1.6-0.2,2.5-0.6c4.9-1.9,11-5.9,18.2-11.9c9.1-7.3,15.1-12.9,18.2-16.8c1-1.3,2-1.4,3.1-0.2c0.5,0.7,0.2,1.7-0.7,2.9
		c-4.3,5.2-11,11.3-20.2,18.2c-13.1,9.8-22.3,14.4-27.3,13.7c-5.5-0.7-8.2-3.7-8.2-8.9c0-1.1,0.1-2.3,0.4-3.6
		c1.2-5.1,3.7-10.7,7.6-16.8c2.5-3.8,7.8-11.1,15.8-21.8c1.7-2.3,4.3-5.8,7.8-10.4h-10.5c-1.3,0-1.9-0.4-1.9-1
		c-0.1-0.7,0.3-1.4,1.2-2c0.9-0.6,1.9-0.9,3.1-0.9h11c12.3-15.9,20-25.2,23.3-27.8c1.3-1.1,2.8-1.3,4.5-0.6
		C445.2,28.4,445.3,28.7,445,29.1z"/>
	<path id="E_3_" class="st0" d="M499.4,86.7c1,0.8,0.7,2.1-0.7,3.9c-4.8,5.7-12.4,12.3-22.9,19.7c-12.5,8.9-23.9,13.4-33.9,13.4
		c-3.8,0-7-0.8-9.6-2.4c-4.1-2.6-6.1-6.6-6.1-12c0-8.9,4.7-18.3,14.2-28.1c5.8-5.9,12.2-10.8,19.3-14.6c7.1-3.8,13-5.7,17.8-5.7
		c4.5,0,6.7,1.4,6.7,4.1c0,2.7-2.3,6.6-6.9,11.7c-4.1,4.4-8.4,8.2-12.8,11.4c-7.7,5.5-15.8,9.2-24.3,11c-1,3.1-1.5,5.9-1.5,8.3
		c0,3.8,1.2,6.6,3.7,8.4c2.2,1.5,4.8,2.3,7.8,2.3c6.6,0,14.4-3.3,23.4-9.8c8.8-6.3,16.1-13,22.1-19.9
		C497.4,86.6,498.6,86,499.4,86.7z M478,64.2c-2.7,0-6.6,1.5-11.6,4.5c-5.4,3.2-10.4,7.2-14.9,11.9c-3.9,4-7.1,8.9-9.7,14.6
		c6.8-1.8,13.6-5.1,20.5-9.9c4.4-3.1,8.5-6.7,12.5-10.7c3.9-4,5.9-6.9,5.9-8.7C480.6,64.8,479.7,64.2,478,64.2z"/>
	<path id="A_2_" class="st0" d="M345.8,90.1c-1.3,1.1-14.1,12.9-15.6,14.1c-10.2,8.3-16.8,11.8-20.3,12c-2.2,0.1-3.6-1.1-3.1-4.1
		c0.6-4.7,4.4-12.6,11.5-23.6c7.9-11.8,13.4-20.1,16.7-24.8c0.3-0.5,0.2-0.8-0.4-0.9c-0.6-0.2-1.4-0.2-2.4,0
		c-0.9,0.1-1.6,0.4-2.1,0.8c-0.5,0.4-1.9,1.8-4.2,4.1c0.3-2.3-0.2-4-1.6-5.1c-1.4-1.1-3.3-1.7-5.7-1.7c-5.6,0-12.4,2.4-20.5,7.1
		c-8.8,5.3-16.3,12-22.7,20.1c-6.4,8.1-9.6,15.6-9.6,22.4c0,7.3,3.1,11.1,9.3,11.4c5.9,0.3,12.8-4.2,20.8-13.4
		c-0.4,1.4-0.6,2.8-0.6,4.1c0,5.5,2.7,9,8.1,9.3c6.4,0.4,14.6-3.7,27.8-13.5c2-1.5,16.6-14.6,17.9-16.1
		C348,91.5,346,91.3,345.8,90.1z M303.6,95c-3.8,5.1-8,9.9-12.7,14.4c-5.6,5.4-9.7,8.1-12.2,8.1c-2.3,0-3.4-1.7-3.4-5.1
		c0-8,5.4-18.1,16.1-30.3c4.8-5.5,9.8-9.9,14.9-13.2c4.8-3.1,8.7-4.7,11.8-4.7c2.9,0,4.6,1.6,4.3,4.2c-0.2,2.1-0.5,3.1-2.1,5.6
		C314.9,82.5,308.4,88.6,303.6,95z"/>
	<path id="S_Fill_8" class="st0" d="M339,104.7c2.6,0,4.7-2.1,4.7-4.7c0-0.7-0.2-1.4-0.5-2.1c-2.1,1.9-4.4,3.8-6.9,5.9
		C337,104.4,337.9,104.7,339,104.7z"/>
	<path id="S_Fill_7" class="st0" d="M339,95.3c-2.6,0-4.7,2.1-4.7,4.7c0,0.3,0,0.5,0.1,0.8c2.2-1.9,4.3-3.6,6-5.2
		C339.9,95.4,339.5,95.3,339,95.3z"/>
	<path id="S_Fill_6" class="st0" d="M340.4,95.5c-1.8,1.6-3.8,3.4-6,5.2c0.2,1.3,0.9,2.4,1.9,3.1c2.5-2,4.8-4,6.9-5.9
		C342.6,96.8,341.6,95.9,340.4,95.5z"/>
	<path id="S_Fill_5" class="st0" d="M336.2,113c0-0.1,0-0.1-0.1-0.2C336.2,112.9,336.2,112.9,336.2,113z"/>
	<path id="S_Fill_4" class="st0" d="M336.3,113.3c0-0.1-0.1-0.2-0.1-0.3C336.3,113.1,336.3,113.2,336.3,113.3z"/>
	<path id="S_3_" class="st0" d="M398,86.6c-0.6,0-1.2,0.4-1.8,1c-4.4,4.8-10.4,10.3-17.9,16.5c-2.2,1.7-4.3,3.3-6.3,4.8
		c-2,1.5-4,2.9-6,4.1c3-4,4.5-8.8,4.5-14.3c0-1.7-0.2-3.8-0.4-6.2c-0.3-2.4-0.8-5.2-1.5-8.3c-1.1-5.4-1.5-8.6-1.2-9.6
		c3-2,6.3-4.4,7.8-6.6c1.5-2.2,2.3-5,2.1-7.4c-0.2-2.6-2.1-3.9-4.3-3.9c-2.1,0-4,1.4-5.8,4.1c-1.4,2-2.4,4.4-3.1,7.2
		c-0.7,2.8-1.3,4.7-1.9,5.7c-4.8,5.2-8.9,9.3-12.2,12.3c-1.5,1.5-2.9,2.9-4.1,4.1c0.3-0.3,0.8-0.5,1.3-0.5c1,0,1.9,0.8,1.9,1.9
		c0,0.4-0.2,0.9-0.4,1.2c1.6-1.5,2.9-2.7,3.7-3.6l10.2-9.8c0.3,1.7,0.4,3,0.4,3.9c0,9.2-1.9,17.1-5.7,23.6c-1.6,2.7-3.4,4.9-5.2,6.6
		c-0.8,0.8-1.6,1.5-2.5,2.1c-2.7,1.9-5.1,2.7-7.1,2.3c-3-0.5-5.1-2.1-6.1-4.3c0-0.1-0.1-0.2-0.1-0.3c0-0.1,0-0.1-0.1-0.2
		c-0.2-0.7-0.4-1.4-0.4-2.1c0-2.9,1.9-5.4,4.6-6.2c0,0,0,0,0,0c1.9-0.6,3.2-2.4,3.2-4.5c0-2.6-2.1-4.7-4.7-4.7c-1.7,0-3.1,0.9-4,2.2
		c-0.3,0.4-0.5,0.8-0.9,1.4c-1.6,2.8-2.4,5.8-2.4,8.9c0,8,3.7,12.8,11.2,14.4c4.5,1,9.6,0.4,15.3-1.7c5.6-2.1,11.7-5.7,18.3-10.8
		c4.3-3.2,8.3-6.5,12-9.8c3.7-3.3,7.1-6.6,10.3-9.8c0.6-0.6,0.9-1.3,0.9-2C399.6,87.1,399.1,86.6,398,86.6z"/>
	<path id="S_Fill_3" class="st0" d="M348.5,92.6c-0.1,0.1-0.3,0.3-0.4,0.4C348.3,92.9,348.4,92.8,348.5,92.6z"/>
	<path id="S_Fill_2" class="st0" d="M345.7,90.1C345.8,90.1,345.8,90.1,345.7,90.1C345.8,90.1,345.8,90.1,345.7,90.1z"/>
	<path id="S_Fill_1" class="st0" d="M347.1,89.5c-0.5,0-1,0.2-1.3,0.5c0,0,0,0-0.1,0.1c-0.3,0.3-0.5,0.8-0.5,1.3
		c0,1,0.8,1.9,1.9,1.9c0.4,0,0.7-0.1,1-0.3c0.1-0.1,0.3-0.3,0.4-0.4c0.3-0.3,0.4-0.7,0.4-1.2C349,90.4,348.1,89.5,347.1,89.5z"/>
	<path id="A_1_" class="st0" d="M199,64.4c-4.6,9.6-22.4,37.8-37.9,50.3c-5.9,4.7-15.7,5.8-15.4-5.7c0.3-12,5.5-22.8,10.2-32
		c4.7-9.3,31.2-53.5,36.4-61.9c5.7-9.2,4.8-13.8,0-14.9c-4.9-1.2-11.3,2.7-23.5,12.7c-12.2,10-75.1,72.5-95,86.8
		c-65.1,46.5-97.8-11.3-34.6-40c24.5-11.1,57.8-16,82.5-11.5c27,4.9,41.7,13.7,46.5,16.1c3.8,1.9,4.7,1.9,6.8-0.4
		c2.2-2.3,3.2-5.2-0.4-3.8c-2.7,1-4.6-0.5-15.5-4.5c-10.9-4-37.2-14.3-71.6-11.3C51.5,47.3,0.9,64.4,0,98.9
		C-0.4,114,10.6,125.6,31.8,126c46.2,0.9,80.9-49.9,110.3-80.1c27-27.6,35.2-35.3,41.4-39.6c6.9-4.8,12-3.5,5.4,5.7
		c-5.3,7.3-41.7,59.2-49.8,81.3c-6.3,17.1-4.1,30.4,9.8,30.5c19.1,0.2,39.7-37,55.7-59.4H199z"/>
	<path id="R_2_" class="st0" d="M238.6,86.7c-0.8,0-1.5,0.4-2.2,1.2c-5.2,5.7-11.4,11.3-18.5,16.8c-5.4,4.2-10.7,7.6-15.8,10.1
		c-5.2,2.5-8.9,3.6-11.1,3.2c-0.7-0.1-1.1-0.4-1.3-0.9c-0.7-2.2,0.3-4.9,3-8.1c5.1-5.5,10.2-11,15.4-16.5c5.9-6.5,9-11.5,9.4-15
		c0.3-2.9-0.8-5.3-3.4-7.1c-2.1-1-4.1-2.1-6.1-3.4c-2-1.2-3.1-2.1-3.3-2.6c1.4-1.6,2.2-3.2,2.5-4.8c0.5-3.4-0.7-5.1-3.6-5.1
		c-2.5,0-4.2,1.7-5.1,5c-0.4,1.7-0.2,3.4,0.6,5l3,3.8c1,1,2.1,1.8,3.3,2.4c1.7,0.9,3.4,1.8,5.2,2.6c1.7,1.1,2.7,2.4,3,3.8
		c0.4,2.4-1.9,5.5-7,9.3c-1.6,1.2-4.5,3.1-8.7,5.6c-3.7,2.3-7.1,4.7-10.2,7.1c-6.9,5.5-10.3,10.8-10.3,15.9c0,5.4,4.1,8,12.2,7.7
		c8.7-0.4,19-5.5,30.9-15.2c9.6-7.8,16-13.6,19.3-17.4c0.4-0.5,0.6-1,0.6-1.4C240.4,87.3,239.8,86.7,238.6,86.7z"/>
</g>
</svg>
