<?xml version="1.0" encoding="utf-8"?>
<!-- Generator: Adobe Illustrator 16.0.0, SVG Export Plug-In . SVG Version: 6.00 Build 0)  -->
<!DOCTYPE svg PUBLIC "-//W3C//DTD SVG 1.1//EN" "http://www.w3.org/Graphics/SVG/1.1/DTD/svg11.dtd">
<svg version="1.1" id="图层_1" xmlns="http://www.w3.org/2000/svg" xmlns:xlink="http://www.w3.org/1999/xlink" x="0px" y="0px"
	 width="285px" height="205.05px" viewBox="38.5 51.85 285 205.05" enable-background="new 38.5 51.85 285 205.05"
	 xml:space="preserve">
<g>
	<path fill="#FFFFFF" d="M66.8,256.2c-6.4,0-11.3-2.199-14.8-6.699c-3.3-4.301-4.9-9.5-4.9-15.601c0-6,1.5-11.101,4.6-15.3
		c3.4-4.6,8.1-6.9,14.3-6.9c0.4,0,1,0.1,1.8,0.2c0.8,0.101,1.8,0.3,2.9,0.5c1.2,0.2,2.1,0.3,2.7,0.3c0-0.1,0.2-0.199,0.4-0.4
		c0.3-0.1,0.5-0.299,0.9-0.5c0.3-0.199,0.6-0.299,0.9-0.399c0.3-0.101,0.4-0.2,0.5-0.2c1.2,0,2.2,1.4,3.3,4.2
		c0.9,2.5,1.4,4.399,1.4,5.601c0,0.6-0.2,1-0.6,1.199c-0.4,0.301-1,0.4-1.7,0.4c-1-0.9-1.9-1.7-2.7-2.4c-0.8-0.699-1.6-1.3-2.4-1.9
		c-1-0.6-2-1.1-3.1-1.5c-1.1-0.399-2.2-0.5-3.5-0.5c-3.3,0-5.8,2-7.4,6.101c-1.2,2.8-1.7,6.399-1.7,10.8c0,5.1,0.6,9.1,1.9,11.9
		c1.9,4.1,4.9,6.1,8.9,6.1c1,0,2-0.199,3-0.5c1-0.3,2-0.8,3-1.4c1.8-1.1,3.2-2,4.1-2.5c0.9-0.6,1.6-0.899,1.9-0.899
		c0.4,0,0.7,0,1,0.2c0.3,0.199,0.5,0.4,0.6,0.699c0.1,0.301,0.2,0.5,0.3,0.701c0,0.199,0,0.5,0,0.899c-0.1,0.399-0.2,0.8-0.5,1.3
		c-0.3,0.5-0.7,1-1.2,1.5c-0.5,0.4-1.1,0.9-1.8,1.301c-0.7,0.399-1.6,0.899-2.6,1.299C72.7,255.4,69.6,256.2,66.8,256.2z"/>
	<path fill="#FFFFFF" d="M103.2,256.2c-1,0-1.5-0.5-1.5-1.4c0-0.6,0.4-1,1.1-1.199c0.8-0.301,1.4-0.7,1.9-1.1
		c0.4-0.4,0.6-0.9,0.4-1.301l-1.5-4.9c-0.9-0.199-2-0.299-3.1-0.299c-1.5,0.299-2.7,0.299-3.8,0c-1-0.301-1.5-0.9-1.5-1.701
		c0-0.699,0.3-1.199,0.8-1.399s1.3-0.399,2.3-0.399c0.6,0,1.2,0,1.9,0c0.7,0,1.2-0.101,1.5-0.5c0-0.4-0.2-1.101-0.6-2.101
		c-0.3-1-0.7-2.101-1.1-3.3c-0.4-1.2-0.8-2.2-1.2-3.2c-0.4-1-0.6-1.7-0.8-2c-0.4,0.899-1,2.3-1.6,4s-1.4,3.8-2.2,6.3
		c-1,2.7-1.7,4.9-2.1,6.6c-0.4,1.701-0.6,2.801-0.6,3.4c0,0.9,0.4,1.5,1.3,1.801c0.9,0.399,1.4,0.799,1.4,1.299
		c0,0.9-0.5,1.4-1.5,1.4h-8.3c-0.5,0-0.8-0.1-0.9-0.4c-0.1-0.299-0.2-0.6-0.2-1.1c0.9-0.699,1.8-1.4,2.6-2.1
		c0.8-0.7,1.3-1.4,1.6-2.1c1.7-4.701,3.2-9.4,4.7-14c1.5-4.701,3-9.4,4.6-14.201c0.2-0.6,0.6-1.1,1.2-1.399s1.1-0.5,1.7-0.5
		c0.7,0,1.5,0.101,2.3,0.399c0.8,0.301,1.3,0.701,1.5,1.301c1.7,4.699,3.3,9.4,5,14c1.6,4.6,3.3,9.3,4.9,14c0.2,0.5,0.6,0.9,1.1,1.3
		c0.5,0.3,1.2,0.899,2.1,1.601c0.5,0.299,0.9,0.699,1.3,0.899c0.4,0.3,0.6,0.5,0.6,0.8c0,0.9-0.5,1.4-1.4,1.4h-13.9V256.2z"/>
	<path fill="#FFFFFF" d="M148.8,225.5c0,1.5,0,3.299,0.1,5.399c0,2.101,0.1,4.2,0.1,6.399c0,2.201,0.1,4.4,0.1,6.601
		s0,4.101,0,5.899c0,1.801-0.1,3.201-0.2,4.301s-0.2,1.699-0.4,1.8c-0.2,0.2-0.5,0.399-0.8,0.5c-0.3,0.101-0.7,0.2-1,0.2
		c-0.3,0-0.7,0-1-0.1c-0.3-0.101-0.6-0.301-0.8-0.5c-2.7-3.801-5.7-7.701-8.8-11.801s-6.4-8.1-9.8-11.8l-0.1,19.399
		c0,0.9,0.5,1.601,1.6,1.9c1.1,0.4,1.6,0.9,1.6,1.5c0,0.9-0.4,1.301-1.3,1.301h-8.2c-0.9,0-1.3-0.4-1.3-1.301c0-0.6,0.5-1,1.6-1.4
		c1.1-0.299,1.6-0.899,1.6-1.899v-26.101c0-0.899-0.5-1.6-1.6-2c-1.1-0.299-1.6-0.799-1.6-1.399c0-0.899,0.4-1.399,1.3-1.399h7.1
		c0.3,0,0.8,0.399,1.6,1.199c0.8,0.801,1.7,1.801,2.7,3.1c1,1.301,2.1,2.701,3.3,4.301c1.2,1.6,2.4,3.1,3.6,4.6
		c1.2,1.5,2.3,2.9,3.4,4.301c1.1,1.299,2,2.399,2.8,3.199c0,0,0-0.199,0-0.4c0-0.199,0-0.799,0-1.799s0-2.601,0-4.701
		c0-2.1,0-5.1,0.1-9c0-0.899-0.7-1.6-2.1-2.1c-0.7-0.3-1-0.699-1-1.199c0-0.9,0.4-1.4,1.3-1.4h8.1c0.9,0,1.3,0.5,1.3,1.4
		c0,0.6-0.5,1-1.6,1.299C149.3,223.9,148.8,224.5,148.8,225.5z"/>
	<path fill="#FFFFFF" d="M182.8,249.1h-0.1c0.2,0.1,0.399,0.199,0.5,0.3c0.2,0.101,0.399,0.2,0.6,0.3h0.2c0.1,0.2,0.2,0.4,0.3,0.6
		c0.101,0.201,0.2,0.4,0.3,0.601c0,0.8-0.5,1.5-1.6,2.2c-1,0.699-2.5,1.4-4.5,2c-1.4,0.3-2.8,0.6-4.2,0.9
		c-1.4,0.199-2.7,0.399-4,0.399c-2.6,0-4.9-0.5-6.9-1.399c-2-0.9-3.7-2.201-5.1-3.801c-1.4-1.6-2.5-3.5-3.2-5.699
		c-0.7-2.201-1.1-4.601-1.1-7.101c0-2.399,0.4-4.601,1.1-6.7c0.7-2.1,1.8-3.9,3.2-5.5c1.4-1.6,3-2.8,5-3.8c1.9-1,4-1.5,6.3-1.7
		c0.8,0,1.5,0,2.3,0.1c0.8,0.101,1.5,0.201,2.1,0.301c0.7,0.1,1.2,0.199,1.7,0.3c0.5,0,0.8,0,1.1-0.101c0.2-0.1,0.5-0.299,0.8-0.5
		c0.3-0.199,0.7-0.399,1.2-0.399c0.4,0,0.8,0.3,1.2,0.899c0.4,0.601,0.8,1.5,1.2,2.601c0.5,1.101,0.8,2,1,2.5
		c0.2,0.5,0.2,1,0.2,1.399c0,0.301-0.2,0.5-0.4,0.801c-0.2,0.3-0.4,0.4-0.7,0.6c-0.3,0.1-0.5,0.2-0.8,0.2s-0.5-0.101-0.6-0.399
		c-0.3-0.301-0.5-0.5-0.6-0.701c-0.2-0.1-0.3-0.299-0.5-0.399c-0.2-0.101-0.3-0.2-0.4-0.399c-0.1-0.101-0.4-0.301-0.6-0.601
		c-0.9-0.899-1.9-1.5-3.1-1.899c-1.2-0.4-2.5-0.601-3.8-0.601c-1.6,0-2.9,0.5-4,1.399c-1.1,1-2,2.201-2.7,3.601
		c-0.7,1.5-1.2,3-1.5,4.7c-0.3,1.699-0.5,3.3-0.5,4.699c0,1.801,0.2,3.601,0.5,5.201c0.3,1.6,0.9,3.1,1.7,4.299
		c0.8,1.201,1.8,2.201,3.1,2.9c1.3,0.7,2.9,1.1,4.7,1.1c0.5,0,0.9,0,1.3-0.1c0.4,0,0.7-0.1,1-0.199c0.3-0.201,0.6-0.4,0.8-0.701
		c0.3-0.299,0.4-0.6,0.4-1V244.5c0-1-0.4-1.601-1.3-2c-1.3-0.4-2-0.9-2-1.701c0-0.5,0.2-0.799,0.6-1c0.4-0.199,0.9-0.299,1.5-0.299
		h9.1c0.601,0,1.101,0.1,1.601,0.299c0.399,0.201,0.7,0.601,0.7,1c0,0.5-0.601,1-1.7,1.601c-0.3,0.2-0.601,0.5-0.9,0.899
		c-0.2,0.4-0.399,0.801-0.399,1.201v4.6H182.8z"/>
	<path fill="#FFFFFF" d="M199.7,256.6c-0.4,0-0.9-0.1-1.601-0.2c-0.699-0.101-1.399-0.3-2.1-0.5s-1.4-0.3-2.1-0.399
		c-0.601-0.101-1.101-0.101-1.301,0c-0.5,0.1-0.899,0.399-1.199,0.799c-0.301,0.4-0.7,0.601-1.101,0.601c-0.5,0-1-0.399-1.399-1.101
		c-0.4-0.699-0.7-1.6-1-2.5c-0.301-1-0.5-1.899-0.601-2.799c-0.2-0.9-0.2-1.601-0.2-2c0-0.301,0.101-0.5,0.2-0.701
		c0.101-0.199,0.3-0.399,0.5-0.5c0.2-0.1,0.4-0.199,0.601-0.199c0.199,0,0.3,0,0.399,0.199c1.2,1.5,2.5,2.801,4.101,3.701
		c1.6,0.899,3.199,1.399,4.6,1.5c1.5,0.1,2.8-0.101,3.8-0.801c1.101-0.6,1.601-1.699,1.601-3.199c0-1.101-0.2-2-0.5-2.701
		c-0.301-0.699-0.801-1.399-1.4-2.1c-0.6-0.6-1.3-1.199-2.2-1.699c-0.8-0.5-1.7-1.101-2.7-1.701c-1.8-1.1-3.199-2-4.399-2.899
		s-2.101-1.7-2.9-2.601c-0.8-0.899-1.2-1.699-1.6-2.5c-0.3-0.899-0.5-1.799-0.5-2.899c0-1.2,0.3-2.399,0.8-3.5s1.2-2,2.1-2.8
		c0.9-0.801,2-1.4,3.301-1.801c1.3-0.399,2.6-0.699,4.1-0.699c0.4,0,0.9,0,1.4,0.1c0.6,0.1,1.1,0.2,1.699,0.301
		c0.601,0.1,1.2,0.199,1.801,0.299c0.6,0.101,1.1,0.201,1.5,0.201c0.199,0,0.3,0,0.5-0.101c0.199-0.101,0.3-0.2,0.5-0.399
		c0.199-0.201,0.3-0.301,0.399-0.5c0.101-0.101,0.3-0.301,0.4-0.4c0.5,0,0.899,0.3,1.3,1.1c0.4,0.7,0.8,1.6,1.1,2.5
		c0.301,0.9,0.601,1.801,0.801,2.7c0.199,0.899,0.3,1.399,0.3,1.7c0,1-0.4,1.5-1.3,1.5c-0.7-0.6-1.4-1.301-2.101-1.801
		c-0.7-0.6-1.399-1.1-2.1-1.6s-1.5-0.9-2.5-1.199c-1-0.301-1.9-0.4-2.8-0.4c-0.9,0.1-1.601,0.4-2.2,0.9
		c-0.601,0.5-0.9,1.399-0.9,2.6c0,0.6,0.2,1.1,0.7,1.6s1.1,1.1,1.9,1.6c0.8,0.601,1.6,1.101,2.6,1.701c0.9,0.6,1.8,1.1,2.7,1.699
		c1.1,0.7,2.1,1.5,3.1,2.301c1,0.899,1.9,1.799,2.8,2.899c0.801,1,1.5,2.101,2,3.3c0.5,1.2,0.7,2.4,0.7,3.7c0,3.2-1.1,5.5-3.2,7.101
		C206.3,255.799,203.4,256.6,199.7,256.6z"/>
	<path fill="#FFFFFF" d="M226.3,234.4h9.4c0.7,0,1-0.3,1-1V225.5c0-0.9-0.5-1.5-1.5-1.9c-1.101-0.301-1.601-0.801-1.601-1.4
		c0-0.9,0.4-1.3,1.301-1.3H246.8c0.9,0,1.3,0.399,1.3,1.3c0,0.6-0.5,1.1-1.6,1.4c-1.1,0.4-1.6,1-1.6,1.9v26.1c0,1,0.5,1.6,1.6,1.9
		c1.1,0.399,1.6,0.899,1.6,1.399c0,0.899-0.399,1.3-1.3,1.3H234.9c-0.9,0-1.301-0.4-1.301-1.3c0-0.601,0.5-1.101,1.601-1.5
		c1-0.3,1.5-0.899,1.5-1.899v-12.201c0-0.6-0.3-0.899-1-1h-9.4c-0.7,0.101-1,0.4-1,1V251.5c0,0.899,0.5,1.6,1.601,1.899
		c1.1,0.399,1.6,0.899,1.6,1.5c0,0.899-0.4,1.3-1.3,1.3h-11.9c-0.899,0-1.3-0.4-1.3-1.3c0-0.601,0.5-1,1.6-1.399
		c1-0.301,1.5-0.9,1.5-1.9v-26.1c0-0.9-0.5-1.601-1.5-1.9c-1.1-0.301-1.6-0.801-1.6-1.4c0-0.9,0.4-1.3,1.3-1.3h11.9
		c0.899,0,1.3,0.399,1.3,1.3c0,0.6-0.5,1.1-1.6,1.4c-1.101,0.4-1.601,1-1.601,1.9v7.899C225.2,234,225.6,234.4,226.3,234.4z"/>
	<path fill="#FFFFFF" d="M268.9,256.2c-1,0-1.5-0.5-1.5-1.4c0-0.6,0.399-1,1.1-1.199c0.8-0.301,1.4-0.7,1.9-1.1
		c0.399-0.4,0.6-0.9,0.399-1.301l-1.5-4.9c-0.899-0.199-2-0.299-3.1-0.299c-1.5,0.299-2.7,0.299-3.8,0c-1-0.301-1.5-0.9-1.5-1.701
		c0-0.699,0.3-1.199,0.8-1.399s1.3-0.399,2.3-0.399c0.6,0,1.2,0,1.9,0c0.699,0,1.199-0.101,1.5-0.5c0-0.4-0.2-1.101-0.601-2.101
		c-0.3-1-0.7-2.101-1.1-3.3c-0.4-1.2-0.8-2.2-1.2-3.2s-0.6-1.7-0.8-2c-0.4,0.899-1,2.3-1.601,4c-0.6,1.7-1.399,3.8-2.199,6.3
		c-1,2.7-1.7,4.9-2.101,6.6c-0.399,1.701-0.6,2.801-0.6,3.4c0,0.9,0.399,1.5,1.3,1.801c0.9,0.399,1.4,0.799,1.4,1.299
		c0,0.9-0.5,1.4-1.5,1.4H250.1c-0.5,0-0.8-0.1-0.899-0.4c-0.101-0.299-0.2-0.6-0.2-1.1c0.9-0.699,1.8-1.4,2.6-2.1
		c0.801-0.7,1.301-1.4,1.601-2.1c1.7-4.701,3.2-9.4,4.7-14c1.5-4.701,3-9.4,4.6-14.201c0.2-0.6,0.6-1.1,1.2-1.399
		c0.6-0.3,1.1-0.5,1.7-0.5c0.699,0,1.5,0.101,2.3,0.399c0.8,0.301,1.3,0.701,1.5,1.301c1.7,4.699,3.3,9.4,5,14
		c1.6,4.6,3.3,9.3,4.899,14c0.2,0.5,0.601,0.9,1.101,1.3c0.5,0.3,1.2,0.899,2.1,1.601c0.5,0.299,0.9,0.699,1.3,0.899
		c0.4,0.3,0.601,0.5,0.601,0.8c0,0.9-0.5,1.4-1.4,1.4H268.9V256.2z"/>
	<path fill="#FFFFFF" d="M314.5,225.5c0,1.5,0,3.299,0.1,5.399c0,2.101,0.101,4.2,0.101,6.399c0,2.201,0.1,4.4,0.1,6.601
		s0,4.101,0,5.899c0,1.801-0.1,3.201-0.2,4.301c-0.1,1.1-0.199,1.699-0.399,1.8c-0.2,0.2-0.5,0.399-0.8,0.5
		c-0.301,0.101-0.7,0.2-1,0.2c-0.301,0-0.7,0-1-0.1C311.1,256.4,310.8,256.2,310.6,256c-2.699-3.801-5.699-7.701-8.8-11.801
		c-3.1-4.1-6.399-8.1-9.8-11.8l-0.1,19.399c0,0.9,0.5,1.601,1.6,1.9c1.1,0.4,1.6,0.9,1.6,1.5c0,0.9-0.399,1.301-1.3,1.301h-8.2
		c-0.899,0-1.3-0.4-1.3-1.301c0-0.6,0.5-1,1.601-1.4c1.1-0.299,1.6-0.899,1.6-1.899v-26.101c0-0.899-0.5-1.6-1.6-2
		C284.8,223.5,284.3,223,284.3,222.4c0-0.899,0.4-1.399,1.3-1.399h7.101c0.3,0,0.8,0.399,1.6,1.199c0.8,0.801,1.7,1.801,2.7,3.1
		c1,1.301,2.1,2.701,3.3,4.301s2.4,3.1,3.601,4.6c1.199,1.5,2.3,2.9,3.399,4.301c1.101,1.299,2,2.399,2.8,3.199c0,0,0-0.199,0-0.4
		c0-0.199,0-0.799,0-1.799s0-2.601,0-4.701c0-2.1,0-5.1,0.101-9c0-0.899-0.7-1.6-2.101-2.1c-0.699-0.3-1-0.699-1-1.199
		c0-0.9,0.4-1.4,1.301-1.4h8.1c0.9,0,1.3,0.5,1.3,1.4c0,0.6-0.5,1-1.6,1.299C315,223.9,314.5,224.5,314.5,225.5z"/>
</g>
<g>
	<g>
		<path fill="#FFFFFF" d="M72.4,88.5c0.1,0.1,0,0.5,0.2,0.8c0.2,0.2,0.6,1,0.8,1.1c0.2,0.1,0.4,0.3,0.4,0.6s0.1,0.5,0.2,0.8
			c0.1,0.2,0.6,0.9,1,1.3c0.3,0.4,1,1.8,1.3,2.3c0.3,0.5,0.4,1.3,0.7,1.7c0.3,0.5,0.6,1.4,0.8,1.6c0.2,0.2,0.4,0.6,0.6,0.7
			c0.2,0.1,0.5,0,0.7,0c0.2,0,0.2,0.2,0.4,0.2s0.2-0.1,0.2-0.2c0.1,0,0.5-0.1,0.6,0c0.1,0,0.3,0.3,0.6,0.2c0.3,0,0.6-0.3,0.7-0.4
			c0.1-0.2,0.1-0.6,0.3-0.7c0.2-0.1,0.5-0.6,0.7-1c0.2-0.4,0.5-0.9,0.6-1c0.1-0.2,0.3-0.4,0.7-0.6c0.4-0.3,1.3-0.8,1.6-1
			c0.2-0.2,0.7-0.2,0.7-0.1c0,0.1,0.1,1.5,0.2,1.9c0.1,0.2-0.1,1.1,0,1.2c0.1,0,0.3,0.5,0.3,1.1c0.1,0.6,0.1,1.3,0.2,1.6
			c0.1,0.4,0.2,0.8,0.6,1.2c0.4,0.5,0.9,1.2,0.9,1.2c0.1,0.1,0.3,0.8,0.3,1.4c0,0.7,0.2,1.1,0.3,1.4c0.1,0.3,0.5,0.2,0.9,0.2
			s0.6-0.1,0.8-0.2c0.2-0.2,0.4-0.4,0.5-0.3c0.1,0.1,0.3,0,0.4-0.2c0.2-0.2,0.2-0.4,0.5-0.5c0.3-0.1,1.1,0,1.2,0
			c0.1,0.1,0.4,0.1,0.5,0c0.1-0.1,0.2-0.2,0.5-0.5c0.3-0.3,0.9-0.4,1.5-0.6c0.6-0.3,0.9-1.1,1-1.3c0.1-0.2,0.4-0.6,0.5-1.3
			c0.1-0.7,0.1-1.5,0.2-2.3c0.1-0.8,0.1-1.5,0.2-2c0.1-0.5,0.4-2,0.4-2.8c0-0.7,0.3-2.2,0.4-2.8c0-0.6,0.3-0.9,0.4-1.2
			s1.9-0.9,2.5-1.1c0.5-0.1,2.3-0.7,2.8-0.9s1.1-0.6,1.7-0.6c0.4,0,1-0.4,1.3-0.7c0.3-0.3,0.5-0.7,0.4-1c-0.1-0.3-0.5-0.5-0.5-0.6
			c-0.1-0.1,0-0.4,0.2-0.6c0.2-0.2,1-0.4,1.5-0.7c0.6-0.3,0.8-0.4,0.9-0.5c0.1-0.1-0.1-0.2-0.2-0.3s-0.1-0.3-0.1-0.5s0-0.5,0.1-0.9
			s0.3-0.3,0.3-1c0-0.7,0.1-1.4,0-1.6c-0.1-0.2-0.3-0.7-0.5-0.8c-0.1-0.1-0.7-0.6-1-0.9c-0.3-0.3-1-0.6-1.5-0.6s-1.3-0.5-1.7-0.6
			c-1-0.1-1.3-0.4-1.5-0.4c-0.2,0-2,0.1-2.4-0.1c-0.4-0.1-0.5-0.3-0.7-0.2c-0.2,0-0.9,0.5-1.3,0.7c-0.3,0.2-1,0.4-1.3,0.4
			c-0.3,0-0.4-0.1-0.4-0.2c-0.1-0.1-0.1-0.6-0.1-0.9c-0.1-0.3,0-0.9-0.1-1.1c-0.1-0.2-0.4-0.6-0.6-0.7c-0.1-0.1-0.9-0.5-1.2-0.8
			c-0.3-0.3-0.9-1-1-1s-0.4-0.1-0.7-0.4c-0.3-0.3-1.9-1.9-2.2-2.1c-0.3-0.2-1.1-0.3-1.6-0.4s-0.9-0.6-1.1-0.8
			c-0.3-0.3-0.7-0.5-1.2-0.4c-0.5,0.1-0.4,0.5-0.5,0.9c-0.1,0.4-0.3,1.4-0.3,1.8c0,0.3,0.2,0.4,0.3,1.3c0,0.9-0.1,4-0.2,6
			c-0.1,1.2-0.2,1.6-0.2,1.8c0,0.6,0.1,1.2-0.1,1.4c-0.2,0.2-0.6,0.5-0.9,0.6c-0.3,0.1-1.1,0.4-1.2,0.4c-0.1,0.1-3,1.4-5,2.1
			c-1,0.4-2.9,1.1-3.6,1.4c-0.6,0.3-1.1,0.6-1.5,0.7c-0.2,0.1-0.4,0-0.4,0c-0.1,0.1-0.2,0.3-0.3,0.3c-0.7,0.3-0.9,0.1-1,0.1
			c-0.2,0-0.3,0.1-0.2,0.2c0.1,0.1,0.1,0.3,0.1,0.5c0,0.2-0.1,0.2-0.2,0.3c-0.2,0.1-0.1,0.6-0.1,0.7C72.1,88.3,72.3,88.4,72.4,88.5z
			"/>
		<path fill="#FFFFFF" d="M199,126c0-0.1-0.4-0.4-0.5-0.5c-0.1,0-0.9-0.3-1.1-0.3c-0.2,0-0.2-0.1-0.2-0.1l-0.3-0.2l-0.4,0.1
			c0,0-0.3-0.1-0.5-0.2c-0.1-0.1-2.5,0-2.7,0s-0.899,0.1-0.899,0.1s-0.301-0.1-0.4-0.1s-2.7-0.1-2.7-0.1H187.9c0,0-0.601,0.1-1,0
			c-0.4,0-1.9,0-1.9,0s-0.3,0.1-0.5,0.1s-2.5,0-2.5,0s-2.9,0.1-3.6,0c-0.7-0.1-2-0.1-2.7-0.1c-0.7,0-1,0-1.3,0.1
			c-0.2,0-0.5-0.1-0.5-0.1l-0.5-0.1l-0.2,0.2c0,0-1.8,0.1-2.2,0.1s-1.2,0.1-1.2,0.1s-0.7,0.2-0.9,0.1c-0.2-0.1-0.6-0.1-0.9-0.1
			s-0.8,0.3-0.8,0.3s-1,0.1-1.3,0.1c-0.3,0-0.6-0.1-1,0.1c-0.4,0.1-0.7,0.2-1,0.3c-0.3,0.1-1.2,0.1-1.6,0c-0.4-0.1-1.2,0-1.3,0.1
			c-0.1,0-0.5,0.2-0.8,0c-0.3-0.2-0.9,0-0.9,0s-0.4-0.1-0.7-0.1c-0.2,0-0.9-0.1-0.9-0.1l-0.6-0.1c0,0-0.5-0.2-0.7-0.2
			c-0.2,0-1.2,0-1.4,0s-0.9,0-0.9,0s-0.3,0.1-0.5,0.2c-0.2,0.1-0.5-0.1-0.7-0.1c-0.2,0-0.3-0.4-0.3-0.4s-0.2,0-0.3,0
			c-0.1,0-0.3-0.2-0.3-0.2s-0.5,0-0.7,0c-0.2,0-0.4-0.2-0.6-0.1c-0.2,0-0.9,0.1-0.9,0.1l-0.4-0.2c0,0-0.5-0.2-0.9-0.4
			c-0.3-0.2-0.7-0.2-0.7-0.2s-0.4-0.1-0.5-0.2c0-0.1-0.6-0.3-0.8-0.3s-0.5-0.3-0.5-0.3l-0.6-0.2c0,0-0.3-0.2-0.5-0.4
			c-0.1-0.1-1-0.5-1.6-0.7c-0.6-0.3-1.1-0.6-1.3-0.6c-0.2-0.1-0.2-0.2-0.3-0.4c-0.1-0.2-0.3-0.1-0.3-0.1H141c0,0-0.2-0.3-0.4-0.3
			c-0.1,0-0.5,0-0.5,0s-0.1-0.1-0.3-0.3c-0.1-0.2-0.6-0.3-1-0.2c-0.4,0.1-0.7-0.1-0.9-0.3c-0.3-0.2-0.9-0.4-1-0.5
			c-0.1-0.1-0.5,0.1-0.8,0.1c-0.3,0-1-0.1-1.2-0.2c-0.1,0-0.4-0.2-0.5-0.4c-0.2-0.2-0.7-0.4-0.7-0.4s-0.4-0.1-0.5-0.1
			c-0.1,0-0.4,0-0.5-0.2c-0.2-0.2-0.6-0.4-0.6-0.4l-0.9-0.1l-0.2-0.5l-0.3-0.1l-0.1-0.1l-0.3-0.1l-0.3-0.2h-0.4c0,0-0.1-0.1-0.4-0.4
			c-0.3-0.3-0.8-0.5-0.8-0.5l-0.2-0.2h-0.6c0,0,0-0.1-0.2-0.1c-0.1,0-0.2,0-0.3,0l0,0v-0.3H126l0,0c0-0.2,0.1-0.5,0.1-0.9
			c0.1-0.7,0.4-3.1,0.6-3.9c0.1-0.1,0.3-0.3,0.3-0.7c0.1-0.6,0.2-0.9,0.3-1.4c0.1-0.4,0.6-1.9,0.6-2.1c0-0.3,0.6-1.7,0.8-2.4
			c0.2-0.8,0.1-1.1,0.1-1.1l0.2-0.5l0.1-1.1c0,0,0.4-0.6,0.5-1.3c0.1-0.7,0.6-1.1,0.8-1.6c0.1-0.2,0.4-0.5,0.9-0.5s1.2,0,1.5-0.2
			c0.3-0.1,1.5-0.9,2.3-1.5c0.8-0.6,1.4-1,2-1.4s0.7-0.6,1-0.7c0.3-0.1,0.8-0.1,1-0.2c0.2,0,0.6-0.9,0.6-0.9l0.5-0.1
			c0,0,0.4-1.4,0.7-1.7c0.3-0.3,0.4-0.6,0.4-0.6l0.2-1c0,0,1.2-1.9,1.5-2.5c0.4-0.6,1-2.1,1.1-2.2s0.5-0.6,0.5-0.6v-0.5
			c0,0,0.3-0.3,0.7-0.3c0.4,0,1.5-0.3,2.2-0.5c0.7-0.2,1.4-0.5,2.3-0.5c0.9-0.1,2-0.5,3-0.5c1-0.1,1.8-0.1,2.2-0.2
			c0.4-0.2,0.6-0.5,0.6-0.5v-0.6c0,0,0.3-0.8,0.5-1.2c0.2-0.4,0.2-0.5,0.2-0.5l0.3-0.2l-0.3-0.5c0,0,0.1-0.3,0.2-0.3
			s0.5-0.3,0.5-0.3s0.2-0.2,0.6-0.1c0.4,0,0.6-0.1,0.8-0.1c0.2,0,0.2-0.2,0.3-0.3c0-0.1,0-0.6,0-0.6l0.2-0.5c0,0,0.5-0.4,0.5-0.5
			c0-0.1,0-1.1,0-1.1s-0.3-0.2-0.7-0.5c-0.4-0.3-1.1-0.7-1.4-0.9c-0.3-0.2-1.1-0.6-1.4-0.9c-0.3-0.2-0.5-0.3-0.8-0.3
			c-0.3,0-1.3,0-1.3,0l-0.5-0.4l-0.6,0.2c0,0-1.6,0-1.9,0c-0.3,0-0.7,0.2-1.1,0.3c-0.4,0.1-2,0.2-2.3,0.2c-0.3,0-0.7,0-0.7,0
			s0-0.4,0.1-0.6c0.1-0.2,0.2-0.6,0.4-1c0.2-0.4,0.2-0.9,0-1c-0.2-0.1-0.8-0.6-1-0.7c-0.2-0.2-0.8-0.5-0.8-0.5l-0.5-0.3
			c0,0,0-0.8,0-1c0-0.2-0.1-0.6-0.3-0.8c-0.2-0.2-0.5-0.7-0.8-1.2c-0.3-0.5-0.8-1-0.8-1l-0.2-0.4h-0.5l-0.2-0.5l-0.5-0.1
			c0,0-0.1-0.2-0.3-0.8c-0.2-0.5-0.2-0.7-0.3-0.9c-0.1-0.2-0.3-0.2-0.6-0.4c-0.3-0.2-0.6-0.3-0.7-0.4c-0.1-0.1-0.3-0.4-0.4-0.6
			c-0.1-0.1-0.3-0.3-0.4-0.4c-0.1,0-0.4,0-0.6,0c-0.1,0-0.3,0.1-0.1,0.3c0.1,0.2,0.3,0.5,0.3,0.7c0,0.2,0,0.6-0.1,0.9
			c-0.1,0.3-0.2,0.6-0.2,0.6h-1.1c0,0-0.4,0.3-0.5,0.8c-0.2,0.5-0.3,0.8-0.3,0.8l-0.1,0.8l-0.3,0.4c0,0,0,0.3,0.2,0.5
			c0.1,0.2,0.3,0.3,0.2,0.6c-0.1,0.3-0.2,0.8-0.2,0.8v1.3c0,0-0.5,1-0.7,1.7c-0.2,0.7-0.5,2.4-0.7,2.9c-0.2,0.5-0.6,1.8-0.8,2.1
			c0,0-0.4,0.2-0.7,0.3c-0.3,0.1-0.3,0.2-0.8,0.2s-1,0.2-1.2,0.2c-0.2,0.1-1.2,0.3-1.4,0.3c-0.2,0-1,0.2-1.3,0.3
			c-0.3,0.1-1.1,0.3-1.3,0.3c-0.2,0.1-0.5,0.2-0.7,0.2c-0.3,0-0.6,0.2-0.8,0.2c-0.2,0-1.2,0.3-1.4,0.3c-0.2,0.1-1.4,0.2-1.8,0.2
			s-1-0.1-1.2-0.2c-0.3-0.1-0.7-0.2-1-0.3c-0.3,0-0.6,0-0.8,0.3c-0.1,0.3-0.2,1-0.2,1.3c0,0.3,0.3,1.1,0.5,1.4
			c0.2,0.2,0.6,0.8,1,1.1c0.3,0.3,0.8,1,0.8,1.1c0,0.1,0.4,0.6,0.4,0.8c0,0.1,0.1,0.4,0.2,0.5c0.1,0.1,0.1,0.3,0,0.3
			c-0.1,0-0.4,0-0.4,0.1c0,0.2,0.3,0.6,0.5,0.8c0.1,0.2,0.4,0.7,0.6,1.1c0.2,0.4,0.9,1.7,1.2,2c0.3,0.3,0.8,0.8,1.2,1
			c0.4,0.2,1,0.2,1.4-0.1c0.5-0.2,1.3-0.5,1.5-0.5c0.2,0,0.6,0.1,0.5,0.4c-0.1,0.3-0.7,1.5-0.9,2.1c-0.3,0.6-0.8,1.7-1.1,2.7
			c-0.3,0.9-1,2.3-1.2,2.9c-0.2,0.6-0.6,2-0.8,2.6c-0.2,0.7-0.6,2.1-0.8,3c-0.2,0.9-0.5,1.9-0.7,2.5c-0.1,0.6-0.3,1.2-0.4,1.4
			c-0.2,0.2-0.5,0.5-0.7,0.6c-0.3,0.2-0.6,0.5-0.8,0.5c-0.2,0-1.9-0.1-2.5-0.1c-0.6,0-2.3-0.4-2.6-0.5c-0.3-0.1-0.8-0.1-0.8-0.1
			s0.2-0.5,0-0.7c-0.2-0.2-0.2-0.2-0.5-0.1c-0.2,0.1-0.6,0.3-0.8,0.3c-0.2,0-0.4-0.4-0.6-0.4c-0.1-0.1-0.5-0.3-0.5-0.3
			s0.1-0.3,0.2-0.5c0.1-0.2,0-1.7,0-2.1s-0.5-0.9-0.7-1.1c-0.3-0.2-0.8-0.6-0.8-0.6h-0.4c0,0-0.7-0.6-0.9-0.7
			c-0.3,0-0.7-0.1-0.7-0.1l-0.3-0.1l-0.2-0.2h-0.5c0,0-0.3-0.5-0.5-0.6c-0.2-0.1-0.6-0.3-0.7-0.3c-0.2,0-0.4,0-0.4,0l-0.2-0.2
			l-0.3,0.3c0,0-0.5-0.2-0.7-0.3c-0.2-0.2-0.6-0.6-0.8-0.6c-0.2,0-0.5-0.1-0.7,0c-0.2,0.1-0.4,0.2-0.6,0.3C103,97.6,102,98,102,98
			s0.5,0.1,0.8,0.1c0.3,0,0.4,0.1,0.4,0.2c0,0.1,0,0.6,0,0.6s-0.3,0.2-0.3,0.3c0,0.1,0,0.7,0,0.7s-0.3,0.1-0.5,0
			c-0.1-0.1-0.3-0.1-0.3-0.2c0,0-0.3-0.4-0.5-0.3c-0.2,0.1-0.4,0.2-0.4,0.4c0,0.2,0,0.3,0,0.3s-0.5,0-0.5,0.2c0,0.2-0.2,0.6-0.2,1
			c0,0.4-0.1,0.7-0.4,1c-0.3,0.3-0.7,0.8-0.8,1c-0.2,0.2-0.2,0.5-0.2,0.5s-0.7,0.7-1.2,1.3s-0.9,1-1,1.1c-0.1,0.2-0.4,0.4-0.4,0.4
			l-0.2,0.2l-0.3,0.3l-0.3,0.3l-0.1,0.4l-0.2,0.3h-0.5c0,0-0.2,0.4-0.3,0.6c-0.1,0.2-0.2,0.3-0.2,0.3l-0.5,0.1c0,0-0.2,0.4-0.4,0.5
			c-0.1,0.1-0.2,0.3-0.2,0.3v0.4c0,0-0.5,0.4-0.8,0.5c-0.3,0.1-0.5,0.3-0.5,0.4c-0.1,0.2,0,0.4,0,0.4s-0.6,0.3-1,0.7
			c-0.3,0.3-0.6,0.4-0.6,0.4s-0.2,0.4-0.4,0.7c-0.2,0.2-0.6,0.6-0.8,0.9c-0.2,0.2-0.5,0.5-0.5,0.5l-0.5,0.2l-0.1,0.5
			c0,0-0.3,0.3-0.7,0.6c-0.3,0.3-0.7,0.4-0.9,0.6c-0.2,0.2-0.6,0.7-0.6,0.7l-0.1,0.5c0,0-0.2,0.2-0.4,0.2c-0.2,0.1-0.3,0.6-0.3,0.6
			s-0.5,0.5-0.8,0.6c-0.2,0.2-0.9,0.7-0.9,0.7H83c0,0-0.6,0.5-0.9,0.8c-0.3,0.3-0.3,0.3-0.3,0.3l-0.3,0.1l-0.1,0.3h-0.3l-0.2,0.5
			c0,0-0.2,0.4-0.4,0.4s-0.4-0.1-0.4-0.1s-0.5,0.3-0.7,0.6c-0.2,0.3-0.6,0.3-0.6,0.3l-0.4,0.6c0,0-0.3,0.3-0.4,0.4
			c-0.1,0.1-0.2,0.2-0.2,0.2l-0.5-0.2l-0.3,0.3c0,0-0.1,0.2-0.3,0.3c-0.2,0.1-0.5,0.1-0.5,0.1l-0.4,0.3c0,0,0,0.3-0.2,0.4
			c-0.2,0.1-0.5,0.3-0.5,0.3s-0.3,0.2-0.3,0.3c0,0.1,0,0.5,0,0.5s-0.4,0.3-0.5,0.3c-0.1,0-0.5,0-0.5,0s-0.4,0.2-0.7,0.5
			c-0.4,0.3-0.6,0.4-0.8,0.5c-0.1,0.1-0.2,0.4-0.2,0.4s-0.2,0-0.3,0.1c-0.1,0.1-0.5,0.4-0.8,0.5s-0.5,0.3-0.8,0.5
			c-0.3,0.1-0.5,0.3-0.7,0.5s-0.3,0.5-0.3,0.5s-0.4-0.1-0.5-0.1c-0.1,0-0.3,0.3-0.6,0.4c-0.3,0.1-0.6,0.6-0.6,0.6l-0.4,0.2
			c0,0-0.3,0.1-0.4,0.3c-0.2,0.2-0.4,0.3-0.4,0.3l-0.4,0.1c0,0-0.3,0.3-0.7,0.7c-0.3,0.4-0.9,1-1.2,1.2c-0.3,0.3-0.5,0.4-0.7,0.4
			c-0.2,0-0.3,0.1-0.5,0.2c-0.2,0.1-0.3,0.3-0.3,0.3L62,135l-0.1,0.4c0,0-0.3,0.3-0.6,0.5c-0.3,0.2-0.9,0.7-0.9,0.7l-0.4,0.1
			c0,0-0.1,0.3-0.3,0.4c-0.2,0.1-0.8,0.7-1.3,1.1c-0.4,0.4-0.7,0.6-1,0.9c-0.3,0.3-0.5,0.3-0.5,0.3s-0.2,0.2-0.4,0.4
			c-0.2,0.2-1,1.1-1.4,1.4c-0.3,0.3-1.4,1.3-2,1.9c-0.5,0.5-1.4,1.5-1.9,1.9s-1,0.8-1.4,1.1c-0.4,0.3-1.1,0.8-1.5,1.1
			c-0.4,0.2-0.6,0.5-0.8,0.7c-0.1,0.2-0.1,0.3,0.1,0.5c0.2,0.2,1,0.3,1,0.3s0.2,0.4,0.2,0.5c0,0.1,0.7,0.3,0.9,0.3
			c0.2,0,1,0.1,1.5-0.1c0.5-0.1,0.9-0.4,0.9-0.4s0.3,0.2,0.5,0.2c0.2,0,0.5,0.1,0.6-0.1c0.1-0.2,0.3-0.3,0.4-0.4
			c0.1,0,0.7,0,0.9-0.1c0.3-0.1,0.3-0.4,0.4-0.4s0.7,0,1-0.1c0.3-0.1,1.1-0.6,1.4-0.8c0.2-0.1,0.6-0.3,0.8-0.4
			c0.2-0.1,0.7-0.1,0.8-0.2c0.2-0.1,0.7-0.8,1-1c0.3-0.1,0.7-0.2,0.9-0.3c0.2-0.1,0.5-0.1,0.6-0.2c0.2-0.1,0.6-0.3,0.8-0.5
			c0.1-0.1,0.1-0.6,0.2-0.7c0.1,0,0.4-0.1,0.4-0.1l0.1-0.5c0,0,0.3-0.3,0.6-0.5c0.4-0.2,0.9-0.3,1.3-0.4c0.3-0.1,0.7-0.3,0.7-0.3
			s0-0.4,0.1-0.5c0.1-0.1,0.4-0.4,0.6-0.3c0.2,0.1,0.5,0.2,0.7-0.1c0.2-0.3,0.4-0.3,0.6-0.3s0.4-0.1,0.4-0.2c0-0.1-0.2-0.3-0.2-0.4
			c0.1-0.1,0.4-0.4,0.5-0.4c0.1,0,0.3,0.1,0.5-0.2c0.2-0.3,0.6-0.6,0.7-0.6s0.5-0.1,0.5,0c0,0.1,0.5-0.3,0.5-0.3
			c0-0.1,0.4-0.1,0.6-0.1c0.1,0,0.4-0.3,0.5-0.5c0.1-0.2,0.3-0.5,0.4-0.5s0.4,0,0.4,0l0.2-0.4c0,0,0.6-0.1,1,0
			c0.3,0.1,0.7,0,0.9,0.1c0.2,0.1,0.7,0.1,1,0.2c0.4,0,0.6-0.1,0.9-0.2c0.3-0.1,0.9-0.3,1.1-0.5c0.2-0.2,0.5-0.1,0.5-0.1l0.2-0.3
			l0.5-0.1l0.4-0.3c0,0,0.3-0.1,0.5-0.3c0.2-0.2,0.3-0.5,0.4-0.4c0.1,0,0.3,0,0.3,0v-0.4c0,0,0.3-0.3,0.5-0.3c0.2,0,0.3,0.3,0.3,0.3
			l0.4-0.7c0,0,0.5-0.1,0.7-0.3c0.2-0.2,0.5-0.7,0.6-0.8c0.1-0.1,0.6-0.4,0.8-0.3c0.2,0,1,0.1,1,0.1l0.1-0.4l0.9,0.2l0.7-0.9
			l0.4,0.2l0.4-0.6l0.8-0.7c0,0,0.3,0,0.5,0.1c0.1,0.1,0.1,0,0.2-0.2c0-0.2,0-0.3,0-0.3s0.5-0.2,0.7-0.4c0.2-0.2,0.3-0.3,0.3-0.3
			s0.1,0,0.4,0c0.3,0,0.8-0.3,1-0.5c0.2-0.2,0.6-0.3,0.8-0.6c0.2-0.3,0.2-0.6,0.2-0.6s0.4-0.2,0.8-0.4c0.3-0.2,0.3-0.5,0.8-0.6
			c0.4-0.2,1.3-1,1.3-1h0.3l0.1-0.3c0,0,0.6-0.1,0.8-0.3s0.4-0.4,0.4-0.4l0.1-0.5l0.7-0.1c0,0,1.4-1.2,2-1.7
			c0.6-0.6,2.3-2.1,2.3-2.1s1.5-1.4,1.8-1.7c0.1,0,0.2-0.1,0.3-0.2c0.2,0.6,0.6,1.3,0.9,1.7c0.3,0.5,0.5,0.8,0.7,1.1
			c0.2,0.3,0.3,0.7,0.3,0.7l0.1,0.1l0.1,0.5c0,0,0.3,0.4,0.4,0.8c0.1,0.4,0.1,1.1,0.1,1.1s0.2,0.3,0.4,0.7c0.2,0.4,0.5,0.9,0.6,1.2
			c0.1,0.3,0.3,0.7,0.5,0.9c0.3,0.3,0.5,0.7,0.7,1c0.2,0.3,0.2,0.4,0,0.6c-0.2,0.1-0.9,0.4-1.8,0.8s-1.2,0.5-1.7,0.7
			c-0.6,0.2-2.6,1.1-3.3,1.3c-0.7,0.2-1.9,0.7-2.1,0.8c-0.2,0-0.3,0-0.3,0l-0.2-0.3h-0.2c0,0-0.2,0.2-0.2,0.4c0,0.1-0.2,0.1-0.2,0.1
			l-0.4-0.5l-0.2-0.5h-0.2l-0.1,0.4l-0.2,0.1v0.4l0.1,0.1v0.5c0,0-0.2,0.1-0.8,0.3c-0.5,0.2-1.2,0.5-2.1,0.9
			c-0.8,0.3-2.2,0.9-3.2,1.3s-3.1,1-3.5,1.2c-0.4,0.2-1,0.2-1.2,0.2c-0.2,0-0.4-0.3-0.5-0.4c-0.1-0.2-0.3-0.7-0.3-0.7
			s-0.2-0.1-0.4,0c-0.2,0.1-0.2,0.3-0.2,0.3s0.1,0.3,0.2,0.5c0.1,0.2,0.1,0.3,0.1,0.3s-0.3-0.2-0.4,0c-0.1,0.1-0.3,0.2-0.3,0.2v0.7
			H85l0.1,0.1c0,0-0.1,0.4-0.2,0.5s0,0.5,0,0.5s0.1,0.1,0.2,0.2c0.1,0,0.2,0.5,0.3,0.7c0.1,0.2,0.3,0.6,0.3,0.7
			c0.1,0.1,0.4,0.4,0.6,0.7c0.2,0.3,0.5,0.8,1,1.1c0.4,0.3,0.7,0.4,1.1,0.4s0.9-0.3,0.9-0.3c-0.4,0.2,1.3-0.6,1.3-0.6
			c0.5-0.3,1.5-1.1,1.8-1.2c0.3-0.2,1-0.7,1-0.7s0.5-0.2,0.8-0.4c0.2-0.2,1.1-0.9,1.3-1s0.1,0.5,0,0.7c0,0.2-0.2,0.8-0.5,1.4
			s-0.7,1.6-0.7,1.6l0,0c-0.2,0.5-0.4,1.4-0.6,1.6c-0.2,0.2-0.4,0.3-0.6,0.4c-0.2,0.1-0.9,0.4-1.2,0.5c-0.3,0.1-0.9,0.5-1.1,0.6
			c-0.1,0.1,0,0.6,0,0.6s-0.4-0.1-0.5-0.2c-0.2,0-0.2,0.3-0.1,0.4c0.1,0.1,0.3,0.3,0.3,0.3s0,0.3-0.1,0.3s0.1,0.2,0.3,0.3
			c0.2,0.2,0.3,0.8,0.3,0.8l0,0c0,0.1-0.1,0.2-0.2,0.3c-0.2,0.4-1.7,2.3-2,2.7c-0.3,0.4-0.7,1.3-0.9,1.4c-0.2,0.1-0.7,1.1-1,1.4
			c-0.2,0.3-1.3,1.5-1.4,1.6c-0.1,0.1-0.2,0.3-0.2,0.3v0.3c0,0-1.3,1.3-1.5,1.701c-0.3,0.399-0.5,0.5-0.5,0.5v0.399H83
			c0,0-1.2,1.2-1.2,1.3c-0.1,0.1-0.2,0.4-0.2,0.4s-0.6,0.699-1,0.9c-0.4,0.299-1.1,1.1-1.1,1.1l-0.1,0.199L79,163h-0.1v0.399h-0.4
			c0,0,0,0.3-0.3,0.601c-0.3,0.299-1,1.199-1,1.199l-0.1,0.2l-0.4,0.101l-0.1,0.399c0,0-0.5,0.601-0.7,0.8c-0.2,0.1-0.4,0.1-0.4,0.1
			l-0.2,0.301c0,0-0.1,0.1-0.4,0.3c-0.3,0.2-1.3,1.399-1.7,1.8c-0.5,0.4-0.6,0.6-0.6,0.6S72.2,170,72.2,170.1s-0.2,0.4-0.3,0.5
			c-0.1,0.199-1.1,0.9-1.3,1c-0.1,0.199-0.6,0.699-0.6,0.699l-0.5,0.201l-0.1,0.199l-0.1,0.4l-0.3,0.199c0,0-0.3,0.4-0.3,0.5
			C68.6,173.9,68.2,174,68.2,174L68,174.4c0,0-0.4,0.399-0.8,0.8c-0.4,0.4-1.6,1.4-1.6,1.4l-0.4,0.1c0,0-0.3,0.301-0.5,0.301
			c-0.2,0.1-0.7,0.6-0.7,0.6l-0.6,0.199V178h0.4v0.199c0,0-0.5,0.5-1.1,0.9c-0.6,0.4-1.2,1-1.6,1.3s-0.7,0.7-1,0.899
			c-0.3,0.201-0.5,0.4-0.9,0.701c-0.4,0.199-0.8,0.5-1,0.699c-0.2,0.2-0.9,0.7-1.1,0.9c-0.3,0.199-1.1,1.1-1.5,1.4
			c-0.5,0.299-1,0.799-1,0.799s-0.8,0.5-1,0.701c-0.2,0.199-0.8,0.799-0.9,0.899c-0.1,0.101-0.5,0.101-0.5,0.101s-0.2,0.1-0.4,0.299
			c-0.1,0.201-0.3,0.5-0.3,0.5l-0.5,0.4L50.9,189H50c0,0-1.3,1.199-1.6,1.299c-0.3,0.101-0.8,0.701-1,0.801
			c-0.2,0.1-0.4,0.3-0.4,0.3l0.1,0.3h0.8l0.4-0.1H49c0,0,0.5-0.301,1.4-0.7s2.4-1.5,2.6-1.601c0.2-0.1,0.6-0.199,0.6-0.199
			s0.6-0.2,1-0.5c0.3-0.2,1.4-1,2-1.301C57.2,187,58.5,186,59.1,185.5c0.7-0.5,1-0.801,1-0.801h0.6c0,0,0.6-0.9,0.9-1
			c0.2-0.1,0.9-0.5,0.9-0.5s0.8-0.699,1.1-0.9c0.3-0.199,1.1-0.6,1.1-0.6s1.2-0.4,1.7-0.6c0.5-0.301,2-1.4,2.3-1.7
			c0.4-0.3,1.4-1.101,1.4-1.101l0.7-0.1c0,0,1.3-1.3,2-1.9c0.6-0.6,1.5-1.399,1.8-1.6c0.3-0.1,0.7-0.3,0.7-0.3s0.3-0.101,0.3-0.2
			c0.1-0.1,0.6-0.5,0.9-0.8s1.8-1.7,2.1-2c0.4-0.3,1.6-1.399,2.3-2.101c0.8-0.699,1.7-1.699,1.7-1.699l0.5-0.1c0,0,0.9-1,1-1
			s0.5-0.201,0.5-0.201s1.1-0.799,1.5-1.199c0.4-0.301,1-0.801,1.1-1c0.1-0.2,0.2-0.301,0.2-0.301s0.2,0,0.3,0.101
			c0.1,0.101,0,0.601,0,0.7s0.2,0.4,0.2,0.4s0.1,0.1,0,0.399c0,0.3-0.2,0.601-0.2,0.8c0,0.2,0,0.5-0.1,0.7s-0.1,0.3-0.1,0.399
			c0,0.201-0.2,1.4-0.2,2c0,0.5-0.1,0.9-0.1,1.101s-0.1,0.601-0.1,0.8c0,0.2,0.1,0.5,0.2,0.801c0,0.399,0,0.899,0,1.299
			c0.1,0.4,0.3,0.701,0.2,0.801c0,0.1,0,0.4,0,0.6c0.1,0.301,0.1,0.801,0.3,1c0.1,0.2,0.3,0.801,0.4,0.9c0.1,0.199,0.2,0.3,0.2,0.6
			c0,0.2,0.2,0.4,0.2,0.4s0,0.8,0.1,1c0.1,0.3,0.5,0.5,0.6,0.5c0.1,0,0.4,0.199,0.4,0.3s0,1.399,0,2s0,1.8,0,2s-0.1,0.8,0,0.899
			c0.1,0.201,0.2,0.5,0.2,0.601c0,0.2,0.2,0.399,0.1,0.601c-0.1,0.1-0.2,0.299-0.2,0.399s0,0.399,0.1,0.5s0.2,0.2,0.2,0.2v0.4
			l0.1,0.199c0,0-0.1,1,0,1c0.1,0,0.3,0.301,0.3,0.301v0.699c0,0,0,0.1,0.2,0.5c0.1,0.301,0.5,0.7,0.6,0.9
			c0.2,0.199,0.7,0.5,0.9,0.6c0.1,0.1,0.3,0.301,0.4,0.301S93,191.4,93,191.2c0-0.199,0.1-0.6,0.1-0.8s0.1-0.399,0.3-0.3
			c0.2,0.1,0.5,0.3,0.7,0.4c0.1,0.1,0.4,0.199,0.5,0.199s0.7-0.4,0.9-0.5s0.3-0.3,0.2-0.5c0-0.199,0.2-0.199,0.2-0.199
			s0.6-0.101,1-0.101s0.7-0.2,0.9-0.3c0.2-0.1,0.7-0.7,0.7-0.7s1.1,0.101,1.2,0c0.1-0.101,0.3-0.5,0.3-0.5s0.3-0.601,0.5-0.8
			c0.2-0.2,0.3-0.5,0.3-0.6c-0.1-0.101-0.2-0.4-0.2-0.4s0.3-0.5,0.5-0.801c0.2-0.299,0.1-0.699,0.1-0.699v-0.5l0.1-0.1v-0.4
			l-0.1-0.1V182.7c0,0,0.2-0.199,0.6-0.3c0.4-0.101,0.9-0.2,1.4-0.399c0.5-0.201,1.2-0.601,1.5-0.601c0.3,0,1.3-0.3,1.6-0.399
			c0.3-0.101,1.1-0.201,1.4-0.301c0.3-0.1,0.5-0.199,1.5-0.4c1.1-0.199,1.7-0.5,1.9-0.399c0.3,0,0.6,0.101,0.6,0.101l0.8-0.4
			c0,0,0.7,0,0.9,0c0.2-0.1,1.3-0.1,2.1-0.301c0.8-0.1,2.6-0.399,3.4-0.6c0.8-0.3,2.1-0.699,2.6-1c0.4-0.199,0.6-0.3,0.7-0.3
			c0,0.3,0,0.601-0.1,0.8c-0.1,0.4-0.4,1.4-0.4,1.4s-0.3,0.1-0.3,0.199c0,0.101-0.5,1.4-0.6,1.601c-0.1,0.2-0.3,0.8-0.3,0.8l0.2,0.4
			v0.4c0,0-0.1,0.399-0.2,0.5c-0.1,0.1-0.1,0.6-0.1,0.6l0.4,0.5c0,0-0.1,0.4,0,0.5c0.1,0.1,0.4,0.8,0.6,0.9
			c0.1,0.1,0.4,0.199,0.5,0.1s0.9-0.7,1.1-0.801c0.1-0.1,0.5,0,0.6,0.101s0.1,0.5,0.1,0.5l0.2,0.101v0.799l0.3,0.5l0.1,0.301v2.1
			l0.1,0.1v0.5c0,0,0.1,0.5,0.2,0.701c0.1,0.1,0.3,0.199,0.6,0.1c0.2,0,0.5-0.6,0.5-0.7c0.1-0.101,0.5-0.601,0.5-0.7
			s0.2-0.4,0.3-0.5s0.6-0.6,0.8-0.8c0.2-0.3,0.4-0.8,0.4-0.899c0-0.101,0.5-0.301,0.7-0.301c0.2,0,0.4,0.301,0.4,0.5
			c0,0.1,0.5,0.1,0.5,0.1s0.3-0.199,0.3-0.299c0-0.101,0.3,0,0.4,0c0.1,0.1,0.3,0.199,0.3,0.199s0.4,0,0.6,0c0.3,0,0.6-0.3,0.6-0.3
			s0.4-0.3,0.6-0.399c0.2-0.101,0.6-0.701,0.8-1c0.3-0.301,1-1.5,1.1-1.801c0.1-0.3,0.4-1,0.5-1.4c0.1-0.399,0.4-0.699,0.6-1
			c0.2-0.299,0.9-1.5,1.1-1.699c0.3-0.301,0.4-1,0.5-1.301c0.2-0.299,0.4-0.799,0.4-0.799s0.3-0.201,0.3-0.4
			c0.1-0.2,0.5-0.6,0.5-0.6l0.1-0.701l0.6-0.299c0,0,0.2-0.801,0.3-1.101c0.1-0.2,0.5-1,0.7-1.3c0.1-0.2,0.5-1.1,0.8-1.4
			c0.1-0.1,0.6-0.1,0.6-0.1l0.1-0.801c0,0,0.5-1.299,0.7-1.899c0.2-0.601,0.9-1.3,0.9-1.3s0.4-0.4,0.6-0.4c0.2,0,0.4-0.5,0.4-0.5
			l0.1-0.9l0.3-0.399l0.1-0.601l0.4-0.399v-0.8l0.1-0.301l0.1-2.1c0,0,0.1-0.3,0.2-0.4c0.1-0.1,0.3-0.5,0.3-0.5l-0.1-0.399
			c0,0,0-0.399-0.1-0.5c-0.2-0.101,0-0.601,0-0.601s0.1-0.399,0-0.699c-0.1-0.2-0.4-0.5-1.1-0.9c-0.7-0.4-1.3-0.5-1.3-0.5l-1.1-0.5
			c0,0-1.3-0.6-1.5-0.8c-0.3-0.1-1-0.4-1.4-0.5c-0.3-0.1-1.4-0.2-1.4-0.2s-0.9-0.9-1.1-1.2c-0.3-0.2-1.2-0.9-1.6-1
			c-0.4-0.2-1.2-0.4-1.5-0.6c-0.3-0.1-0.7-0.4-0.7-0.4l-0.2-0.4l-0.4-0.1l-0.4-0.2c-0.1,0-0.5-0.5-0.5-0.5l-0.3-0.1v0.4
			c0,0-0.2-0.1-0.4-0.2c-0.1-0.1-0.6-0.5-0.7-0.7c-0.1-0.2-0.5-1-0.5-1.3c-0.1-0.4-0.5-1-0.7-1.3c-0.2-0.3-0.6-0.6-0.9-0.7
			c-0.3-0.1-0.9-0.4-0.9-0.4l-0.7-0.4l0.1,1l0.2,0.1v0.6c0,0-0.2,0.2-0.2,0.4c0,0.3,0.1,1.2,0.2,1.5c0.1,0.3,0.1,1.2,0.2,1.7
			c0,0.5,0,1.9,0,2.1s0,1.5-0.2,1.7c0,0-0.1,0.1-0.1,0.3c-0.1,0-0.1,0-0.1,0s-0.3,0.1-0.7,0.2c-0.4,0.1-2.9,0.6-3.6,0.8
			c-0.8,0.2-2,0.4-2.4,0.4c-0.4,0.1-3.7,0.2-4.3,0.3c-0.5,0.1-2.1,0.3-3,0.4c-1.6,0.3-8.2,2-11.5,3.699
			c-1.1,0.5-2.7,1.101-2.7,1.101s-0.6-0.101-0.9-0.3c-0.3-0.2-0.8-0.801-0.9-0.801S95.7,161,95.7,161s0.1-0.701,0-0.801
			c-0.1-0.1-0.6-1.1-0.8-1.4C94.7,158.5,94.1,158,94.1,158l-0.6-0.4v-0.4c0,0,0.4-0.7,0.6-0.8c0.2-0.1,0.6-0.8,1.1-1
			c0.1,0,0.5,0.2,0.8,0.3c0.3,0.2,0.9,0.3,1.5,0.3s2.4-0.4,3.2-0.7c0.8-0.3,3.2-1.5,4-1.9c0.8-0.4,3.4-1.7,3.5-1.9
			c0.1-0.2,0.4-0.1,0.4-0.1s-0.2,0.5-0.1,0.6c0,0.1,0.3,0.6,0.4,0.9c0.1,0.3,0.5,0.7,0.7,0.8c0.2,0.1,0.4,0.1,0.7,0.1
			c0.3,0,0.3,0,0.4,0.3c0.1,0.2,0,0.7,0,0.9s0.1,0.4,0.3,0.5c0.1,0.1,0.4-0.1,0.5-0.2c0.1-0.1,0.4,0,0.5-0.1
			c0.1-0.1,0.6-0.5,0.7-0.6c0.1-0.1,0.6-0.4,0.6-0.4h1.1c0,0,0.1,0.1,0.2,0.2c0.1,0,0.4,0,0.6-0.1c0.2-0.1,0.7-0.5,1.3-0.8
			c0.5-0.3,1.8-1.3,2.1-1.6c0.3-0.3,1.6-1.5,2.1-2s1.3-1.3,1.5-1.5c0.2-0.2,0.8-1,0.9-1.3c0.2-0.2,0.3-0.3,0.5-0.5
			c0.2-0.2,0.4-0.9,0.6-1.3c0.2-0.4,0.8-1.3,0.9-1.6c0.1-0.3,0.4-0.8,0.5-0.9c0-0.1,0-0.5,0-0.5s0-0.1,0.1-0.2c0.1,0,0.7-1,0.8-1.1
			s0.2-0.5,0.1-0.6c0-0.1,0.3-0.4,0.3-0.6c0-0.2,0.7-0.6,0.7-0.6l0.2-0.5l0.4-0.1c0,0,0.3-0.6,0.5-0.8c0.2-0.2,0.5-0.6,0.8-0.9
			c0.4-0.3,0.8-0.8,1-1c0.2-0.2,0.5-0.4,0.7-0.7c0.2-0.3,0.4-0.4,0.7-0.8c0.3-0.5,1-1.8,1.2-2.3c0.3-0.5,0.8-1.9,0.8-1.9
			s0.2-0.1,0.4,0c0.1,0.1,0.2,0.1,0.4,0.2c0.2,0.1,0.7,0.3,1,0.3c0.3,0,1-0.1,1.2,0c0.2,0.1,0.7,0.1,1,0.1c0.2,0,1.1-0.1,1.6-0.1
			v0.1c0,0,0.9,0.7,1.1,0.9c0.3,0.2,0.6,0.4,0.6,0.4l0.1,0.4l0.3,0.1c0,0,0.5,0.3,0.9,0.6c0.3,0.3,0.8,0.6,1.4,1
			c0.6,0.4,1.3,0.7,1.3,0.7l0.2,0.4l0.5,0.1c0,0,0.4,0.3,0.6,0.4c0.2,0.1,0.5,0.3,0.5,0.3l0.1,0.2l0.3,0.1l0.5,0.5c0,0,0.3,0,0.4,0
			c0.1,0,0.5,0.5,0.5,0.5l0.3,0.2h0.7c0,0,0.2,0.2,0.3,0.3s0.5,0.3,0.5,0.3l0.5,0.4l0.4,0.1l0.2,0.4h0.4c0,0,0.4,0.1,0.7,0.3
			c0.3,0.2,1.6,1,1.8,1.1c0.2,0.1,0.4,0.2,0.6,0.2c0.2-0.1,0.5-0.1,0.5-0.1s0.2-0.2,0.3-0.2s0.3,0.2,0.3,0.2s0.4,0,0.6-0.1
			c0.2-0.1,0.3-0.1,0.6-0.1c0.2,0,0.6,0,0.6,0l0.4-0.1c0,0,0.3-0.3,0.4-0.4s0.5,0,0.5,0s0.3,0.2,0.4,0.2c0.1,0,0.4-0.2,0.4-0.2
			s0.2,0,0.4,0.1c0.2,0,0.3-0.1,0.4-0.2c0.1-0.1,0.3-0.2,0.5-0.1c0.3,0,1,0,1,0l0.5-0.6h0.7l0.1-0.3h0.4l0.1-0.1l0.2-0.3h0.4
			l0.3-0.3l0.2,0.2h0.3c0,0,0.3-0.3,0.5-0.5c0.2-0.1,0.5-0.3,0.7-0.3c0.2,0,0.5,0,0.5,0s0.3-0.2,0.4-0.3c0.2-0.1,0.5-0.4,0.5-0.4
			h0.4c0,0,0.2-0.1,0.3-0.2s0.4-0.1,0.7-0.2c0.3,0,0.5-0.1,0.5-0.1s0.1-0.1,0.3-0.3c0.2-0.1,0.4-0.3,0.6-0.4
			c0.2-0.1,0.6-0.2,0.9-0.4c0.3-0.2,0.4-0.3,0.6-0.4c0.2-0.1,0.5-0.2,0.8-0.3c0.3-0.1,0.6-0.3,0.8-0.3c0.2,0,0.6-0.1,1-0.2
			c0.4-0.1,0.3-0.2,0.5-0.2c0.1,0,0.8,0,0.9-0.1c0.1,0,0.4-0.1,0.5-0.2c0.1,0,0.4-0.3,0.7-0.3c0.3,0,0.6,0.1,0.9,0
			c0.3-0.1,0.7-0.2,0.9-0.3c0.2-0.1,0.4-0.3,0.6-0.5c0.2-0.2,0.4-0.3,0.5-0.4c0.1-0.1,0.1-0.4,0.3-0.5c0.1-0.1,0.3-0.1,0.6-0.2
			c0.2-0.1,0.5-0.1,0.9-0.2c0.3,0,1.1-0.2,1.1-0.2h0.5l0.301-0.2c0,0,0.5,0,0.8,0c0.399,0,0.5,0,0.5,0l0.399-0.4l0.601-0.1
			c0,0,0.1-0.2,0.1-0.3s0.2-0.1,0.2-0.1l0.2,0.2l0.399,0.1c0,0,0.101-0.2,0.2-0.3c0.101,0,0.3,0.1,0.3,0.2c0.101,0.1,0.4,0,0.601,0
			s0.399,0,0.6-0.2c0.2-0.2,0.2-0.2,0.4-0.3s0.7,0,0.7,0l0.199-0.1h0.301c0,0,0.3,0,0.5-0.1c0.199-0.1,0.3-0.4,0.3-0.4h0.5l0.2-0.1
			h0.5l0.199-0.2c0,0,0.101,0,0.301,0c0.1,0,0.399,0.2,0.399,0.2s0.2,0,0.3,0c0.101,0,0.301-0.2,0.301-0.2s0.8,0.1,1,0
			c0.199-0.1,0.3-0.2,0.3-0.2s0.2-0.1,0.399-0.1c0.2,0,0.4-0.2,0.5-0.3c0.2-0.1,0.7,0,1.101-0.2c0.399-0.1,0.7-0.3,0.7-0.3
			s0.199,0,0.399-0.1c0.2,0,0.3-0.3,0.5-0.5c0.2-0.2,0.3-0.7,0.3-0.9C199.1,126.5,199,126,199,126z M100.2,174.299l0.2-0.199
			c0,0,0.1-2.7,0.1-2.801c-0.1-0.199-0.1-0.299-0.1-0.299V170.7c0,0,0.4-0.3,0.4-0.5c0-0.199,0-0.8,0-0.8s0.3-0.2,0.8-0.5
			s1.8-1.101,1.8-1.101l0.5-0.1h0.1l0.5-0.199l0.1-0.301h0.6l0.3-0.4l0.4-0.1l0.2-0.199h0.5l0.4-0.201h0.5l0.2-0.299l0.3-0.101h0.9
			l0.1-0.3h0.8l0.3-0.301l0.9,0.101l0.3-0.3h0.7l0.3-0.2c0,0,0.7-0.2,1.4-0.2c0.7,0,1.6-0.3,3.3-0.199c1.7,0.1,2.4,0,3.8,0.1
			c1,0.1,2.1,0.199,2.6,0.199c-0.3,1.601-0.7,4.601-0.8,5.301c-0.1,0.6-0.5,2.4-0.6,2.9c-0.2,0.1-0.7,0.199-1,0.199
			c-0.5,0-1.9,0.4-2.9,0.5s-3.1,0.5-4,0.7c-1,0.2-2.9,0.5-4,0.7c-1.1,0.199-3.7,0.699-4.3,0.9c-0.6,0.199-1.9,0.5-2.3,0.5
			s-1.2,0.199-1.5,0.399c-0.4,0.2-0.6,0.101-0.6,0.101l-0.5,0.299c-0.1,0-0.3-0.1-0.4-0.199c0-0.1,0-0.801,0-0.9s-0.1-0.3-0.1-0.3
			L100.2,174.299z M115.5,110.7c0.1-0.2,0.2-0.6,0.3-0.7c0.1-0.1,0.2-0.3,0.4-0.4c0.2-0.1,1,0,1.3,0.1c0.3,0.1,0.9,0.1,0.9,0.1h0.1
			c0.1,0.3,0.3,0.6,0.4,0.8c0.2,0.5,0.5,1,0.7,1.2c0.2,0.2,0.6,0.4,0.6,0.6c0,0.1,0,0.4-0.1,0.7c-0.3-0.2-0.5-0.5-1-0.7
			c-0.5-0.1-0.8-0.2-0.8-0.2h-1c0,0-0.1-0.2-0.4-0.2c-0.3,0-1.2,0-1.2,0s-0.5-0.3-0.6-0.3c-0.1-0.1-0.2-0.2-0.2-0.2
			S115.4,110.9,115.5,110.7z M113.6,141.5c0,0.2-0.7,1.1-0.7,1.1s-0.3,1-0.4,1.2c-0.1,0.2-0.6,0.3-0.8,0.4c-0.3,0.1-1.3,0.4-1.3,0.4
			l-0.6,0.1l-0.3,0.4h-0.6l-0.1,0.1c0,0-0.2,0.1-0.4,0.2c-0.1,0.1-2.4,0.9-2.9,1c-0.4,0.1-2.6,1.2-3.8,1.6c-1.1,0.4-1.8,0.8-2,0.9
			c-0.2,0.1-0.8,0.2-0.8,0.2s-0.5,0.5-0.8,0.6c-0.3,0.1-1.1,0.4-1.5,0.6l-0.1-0.1c0,0,0.6-1.8,0.7-2.4v-0.1l0,0
			c0.1-0.5,0.3-1.1,0.4-1.3c0.2-0.3,0.7-0.5,1.1-0.6c0.4-0.2,1.4-0.6,2-1c0.6-0.3,2.5-1.1,3.4-1.5c0.9-0.4,3.4-1,4.2-1.2
			c0.8-0.2,2.8-0.4,3.5-0.6c0.7-0.2,1.7-0.3,1.7-0.3S113.6,141.3,113.6,141.5z M120.8,129.5c0,0.3-1,1.4-1.2,1.8
			c-0.2,0.4-0.4,0.8-0.8,1.3c-0.4,0.5-0.5,0.8-0.8,1.4s-0.9,1.5-1,1.6s-0.5,0.2-0.8,0.3c-0.3,0.1-1.2,0.1-1.5,0.1
			c-0.3,0-0.5,0.4-1.3,0.4c-0.7,0-0.9,0.2-0.9,0.2l-0.7,0.1c0,0-0.4,0.3-0.5,0.4c-0.1,0.1-1.1,0.2-1.1,0.2s-0.2,0.2-0.3,0.2
			s-0.5,0.2-0.5,0.2l-0.3-0.1c0,0-0.1,0.1-0.7,0.4s-1.6,0.4-2,0.5s-1.4,0.6-1.4,0.6l-0.7,0.1c0,0-0.6,0.4-1.1,0.6
			c-0.5,0.2-2.2,0.8-2.9,1.1c-0.7,0.3-1.4,0.7-1.5,0.7h-0.1l0,0c0.1-0.2,0.3-0.8,0.4-1c0.1-0.2,0.2-0.5,0.3-0.8
			c0.1-0.2,0.3-0.4,0.4-0.5c0.1-0.1,0-0.3,0-0.4s0-0.4,0.1-0.5s0.1-0.4,0.1-0.6c0-0.2,0-0.3,0.1-0.4s0.2-0.2,0.3-0.3
			c0.1,0,0.1-0.4,0.2-0.4s0.1-0.5,0.2-0.6c0.1-0.1-0.1-0.3-0.1-0.3c0-0.1,0-0.6,0-0.8s0.1-0.3,0.2-0.4c0.2-0.1,0.7-0.2,0.8-0.4
			c0.1-0.1,0.9-0.3,1.3-0.5c0.4-0.3,2-0.7,2.4-0.9c0.4-0.2,1-0.4,1.6-0.6c0.6-0.3,1.5-0.6,1.7-0.7c0.2-0.1,0.4,0.1,0.4,0.2
			c0,0.1,0.1,0.3,0.3,0.5c0.1,0.2,0.1,0.4,0.1,0.4s0.2,0,0.3,0.2c0.1,0.2,0.6,0.5,0.9,0.6c0.3,0.1,0.5,0.3,0.5,0.3s0,0,0.1,0
			c0.1,0,0.4,0,0.4,0s0.2-0.2,0.4-0.1c0.2,0,0.7,0,0.7,0l0.1,0.2h0.2l0.1,0.1h0.3c0,0,0.1-0.3,0.1-0.4s0.2-0.3,0.2-0.3h0.3l0.3-0.2
			c0,0,0-0.3,0.2-0.5c0.1-0.2,0.3-0.6,0.4-0.7c0.1-0.2,0.2-0.5,0.2-0.5s0.2-0.1,0.3-0.2s0.4-0.4,0.5-0.6s0.3-0.2,0.3-0.2
			s0-0.3,0.1-0.4c0-0.1,0.3-0.4,0.3-0.4h0.2c0,0,0-0.3,0.2-0.3c0.2-0.1,1.3-0.1,1.3-0.1l0.2-0.1c0,0,0.2-0.1,0.3-0.1
			s0.3,0.3,0.3,0.3c0.1,0,0.9,0,1.2,0h0.1C121,129.1,120.8,129.3,120.8,129.5z M117.9,125.5c-0.7,0.1-0.8,0.1-0.9,0
			s-0.3-0.5-0.5-0.8c-0.2-0.3-0.7-0.6-0.9-0.9c-0.3-0.3-0.6-0.6-0.8-0.7c-0.2-0.1-0.6-0.3-0.7-0.5c-0.1-0.1-0.8-0.4-0.9-0.4
			c-0.1,0-0.2-0.1-0.6-0.5c-0.4-0.3-1.3-0.8-1.6-1c-0.3-0.2-0.9-0.5-1-0.6s-0.3-0.2-0.4-0.4c-0.1-0.2-0.5-0.5-0.7-0.7
			c-0.2-0.1-0.8-0.6-1-0.8c-0.2-0.1-1.3-0.9-1.6-1.1c-0.1-0.1-0.2-0.1-0.3-0.2c0,0,0,0,0.1,0c0.9-0.5,1.3-0.9,1.9-1
			c0.5-0.1,1.2-0.4,1.8-0.3c0.6,0.1,0.5-0.1,0.7,0.1c0.2,0.2,0.7,0.2,0.8,0.3c0.1,0.1,0.8,0.9,1.3,1.1c0.4,0.2,0.6,0.5,0.6,0.5
			l0.5,0.1c0,0,0.4,0.5,0.7,0.9c0.3,0.4,1.1,1.1,1.4,1.3c0.3,0.2,0.9,0.3,0.9,0.3s1.4,1.2,1.8,1.6c0.4,0.3,1.5,1.4,1.9,1.8
			c0.4,0.3,1.4,1.2,1.5,1.3C120.8,124.9,118.5,125.3,117.9,125.5z M121.9,124.8L121.9,124.8L121.9,124.8L121.9,124.8z"/>
	</g>
	<g>
		<path fill="#FFFFFF" d="M205.7,161.6l-0.101,0.8l-0.1,0.899v1.4l0.2-0.1c0,0,0-1.2,0.1-1.5c0-0.301,0.101-0.9,0.101-0.9l0.3-0.3
			v-1.601l-0.101-0.1v-1.1h-0.3c0,0,0,1,0,1.4c0,0.399,0,1.1,0,1.1H205.7z"/>
		<path fill="#FFFFFF" d="M204,178.7v-0.4l0.3-0.399l0.101-0.3l-0.101-0.2l0.101-0.5l0.3-1.101l0.1-1.799
			c0,0,0.101-0.701,0.101-0.801s0.1-0.8,0.1-0.8V172h-0.1v1l-0.301,0.5l-0.1,1.1v1.3l-0.2,0.8L204,178l-0.3,1h0.3V178.7z"/>
		<polygon fill="#FFFFFF" points="241.1,182.299 240.7,182.5 240.3,182.7 239.7,183.1 241.5,182.4 241.4,182.2 		"/>
		<polygon fill="#FFFFFF" points="248.6,178.9 248,179.2 247.2,179.5 246.4,179.9 245.4,180.299 244.8,180.6 244.1,180.9 
			243.3,181.299 242.5,181.6 242.4,181.799 242.5,181.799 243.8,181.4 244.5,181 245.4,180.7 246.9,180 248.4,179.4 248.5,179.2 
			249,179 249.2,178.799 249,178.799 		"/>
		<polygon fill="#FFFFFF" points="251.7,177.7 251,177.9 250.7,178 250.3,178.2 250,178.4 249.5,178.5 249.5,178.799 249.5,178.799 
			250.2,178.5 250.6,178.4 251,178.1 251.9,177.799 252.2,177.5 252.2,177.5 		"/>
		<polygon fill="#FFFFFF" points="250.4,177.2 250.4,177 250.2,177 250,177.5 250.1,177.5 250.4,177.5 		"/>
		<polygon fill="#FFFFFF" points="205.1,170.299 205.2,169.6 205.2,169.2 205.2,169 205.5,168.799 205.6,168.299 205.4,167.9 
			205.3,167.9 205.2,168.1 205.1,168.6 205.1,169.299 205,169.7 204.9,170.4 204.9,171.2 205.1,171.1 		"/>
		<polygon fill="#FFFFFF" points="290.5,144.7 290.5,143 290.5,141.9 290.4,142.4 290.2,142.8 290.2,143.6 290.4,143.7 290.4,144.7 
					"/>
		<path fill="#FFFFFF" d="M317.5,125.3c0,0,0-0.3-0.1-0.6c-0.101-0.3-0.301-0.5-0.301-0.5v-0.3l-0.399-0.4l-0.2-0.6l-0.1-0.2h-0.2
			l-0.2-0.3l-0.1-0.3L315.6,122l-0.199-0.4l-0.2-0.4l-0.4-0.4l-0.2-0.4h-0.1h-0.3l-0.4-0.1V120l-0.3-0.2l-0.4-0.4L312.7,119
			l-0.3-0.2l-0.5-0.2c0,0-0.9-0.6-1.4-0.9c-0.5-0.3-0.9-0.4-0.9-0.4L309.4,117h-0.2l-0.3-0.1l-0.301-0.2H307.7l-0.2-0.3h-0.2
			l-0.2-0.2h-0.3l-0.2-0.1H306l-0.1-0.1l-0.5-0.1l-0.301-0.1l-0.1-0.2h-0.5l-0.1-0.1H303.6l-0.3-0.2l-0.3-0.2h-0.6l-0.2-0.2h-0.4
			v-0.2H301.4H301.3l-0.399-0.1l-0.101-0.1h-0.3v0.1h-0.3l-0.3-0.1l-0.4-0.2l-0.8-0.1l-0.101-0.1H298l-0.2-0.2l-1-0.1l-0.3-0.1
			l-0.2-0.3h-0.5l-0.2,0.1l-0.1-0.1h-0.3l-0.101,0.1h-0.5v0.1H294.2v-0.1h-0.5l-0.101,0.1H293.4l0.1,0.4l-0.1,0.1l0.1,0.1h0.3v0.3
			H293.4l-0.601,0.1l-0.7-0.1H291.9l-0.101-0.2h-0.2l-0.1-0.1H291l-0.2,0.2l-0.2,0.2l-0.6,0.1l0.1,0.4l0.2,0.1l0.2,0.4l0.3,0.7
			l0.101,0.4l0.3,0.2l0.2,0.4l0.199,0.4v0.6l0.101,0.1v2.9l0.1,0.1v1.6l0.2,0.1v1v0.4l-0.2,0.1v1.4l-0.1,0.1v1.6l-0.101,0.1v2.4
			l-0.199,0.1c0,0-0.101,1.9-0.2,2.3c-0.101,0.4-0.2,1.3-0.2,1.3l-0.2,0.8v1.4l-0.101,0.2l-0.1,1.1l-0.1,0.2v1.3l-0.2,0.3v1.3v0.6
			l0.3-0.4l0.1-0.2v-0.3l0.4-0.1v0.2l0.1,0.2l-0.1,1.2l-0.1,0.2v1.4v1.2l-0.1,0.7l0.1,0.8l-0.301,0.2v1.1v0.9l-0.199,0.2v0.8
			l-0.2,0.6v0.4l-0.101,0.5l-0.1,0.6v0.3v0.4l-0.199,0.2l-0.101-0.3l-0.101-0.4l0.101-0.4v-0.6l0.101-0.5v-0.6v-1l0.1-0.5v-0.4V147
			l0.1-0.5l-0.1-0.6v-0.7l-0.1,0.1v0.4l-0.101,0.2v0.3l0.101,0.2l-0.201,0.2v0.7l-0.1,0.1v0.5l0.1,0.2l-0.1,2l-0.1,0.9l-0.2,0.1
			l0.101,0.9h0.1v0.4l-0.1,0.2h-0.201l-0.699-0.2l-0.601-0.3H287.5l-0.301,0.1L287,152h-0.301l-0.299,0.3c0,0-0.601,0-0.801,0
			c-0.199,0-0.5,0.1-0.699,0.2c-0.201,0-0.701,0.2-0.701,0.2l-0.5,0.5H282.3l-0.2,0.2l-0.4,0.1l-0.199,0.3h-1c0,0-1-0.2-1.301-0.2
			c-0.299,0-1.199,0.1-1.199,0.1l-1.2,0.1l-0.9,0.3l-0.8-0.1l-0.3,0.3c0,0-0.5,0.2-1.101,0.3c-0.6,0.1-1.899,0.4-2.6,0.6
			c-0.8,0.2-1.2,0.3-1.6,0.4c-0.4,0.1-2.7,0.8-3.301,1c-0.6,0.2-1.5,0.6-1.699,0.6c-0.2,0-1,0.3-1,0.3l-0.101-0.3l0.3-0.5l-0.5-0.1
			L263,156.1c0-0.1-0.101-0.5-0.101-0.7c0-0.2,0-1.2,0-1.2l0.101-0.3v-0.8l0.1-0.7l0.2-0.1v-0.9l-0.101-0.1v-1l0.7,0.1l0.2-0.4
			l-0.7,0.1v-0.3l-0.1-0.3v-1.1l0.3-0.5l0.4-0.4V145h-0.4l-0.1-1.2h0.399v-0.4l-0.2-0.4l0.101-0.4l-0.101-0.2V142l0.301-0.3
			l-0.4-0.3l-0.1-0.4c0,0,0.1-0.5,0.199-0.6c0.101-0.2,0.301-0.7,0.301-0.7l-0.101-0.4V139l0.101-0.7c0-0.1,0.199-0.3,0.199-0.3
			l0.101-1.1l0.1-1.1l0.101-1c0,0-0.2-0.4-0.4-0.5c-0.2-0.1,0-0.5,0-0.7c0-0.2,0.3-0.5,0.3-0.5l0.3-0.1l0.101-0.4l-0.2-0.1v-1.7
			l0.2-0.3l-0.101-1.1l0.101-0.2l0.1-0.8v-1.1h-0.3h-0.3l-0.101-0.4l0.101-0.3l0.2-0.4l0.3-0.1l0.1-0.4h-0.2v-0.4H265v-0.7h0.1v-0.4
			v-0.9l-0.3,0.3l-0.2-0.1l-0.1-0.2l-0.301-0.1V122l-0.1-1.4l0.5-0.3l0.5-0.4v-0.4l0.5-0.7l-0.3-0.1v-0.5l-0.2-0.5v-0.3l0.2-0.2
			v-1.1V116l-0.4-0.4v-0.3l-0.1-0.6l-0.4,0.1v-0.3l0.2-0.5v-0.6l0.1-0.1v-0.7l-0.299-0.2V112l0.1-0.1v-0.7l-0.4-0.5v-0.6l0.1-0.2
			v-0.5l0.101-0.1v-0.6l-0.3-0.4l0.1-1.2l0.1-0.4l-0.1-1.2l0.1-0.3v-0.8l-0.1-0.4l-0.1-0.4c0,0,0.1-0.9,0.1-1.4
			c0-0.4-0.199-2.8-0.199-2.8s-0.101-1.5-0.101-1.9c0-0.3-0.2-0.9-0.2-0.9s-0.1-0.9-0.3-1.6s-0.7-2-0.899-2.2
			c-0.101-0.2-0.4-0.5-0.4-0.5l-0.4-0.4l-0.5-0.2l-0.5-0.3H260l-0.301-0.2l-0.399-0.4h-0.5c0,0-0.3-0.4-0.399-0.4
			c-0.101,0-0.4-0.2-0.4-0.2l-0.4-0.1l-0.3-0.3c0-0.1-0.5-0.2-0.5-0.2l-0.8-0.3l-0.6-0.4l-0.5-0.1v-0.2h-0.4l-0.6-0.2v-0.3
			l-0.601-0.2l-0.5-0.4l-0.399-0.1l-0.701,0.2H251.3L251,87h-0.301l-0.299-0.3H250l-0.4-0.2h-1l-0.5,0.3c0,0-0.699-0.2-0.9-0.2
			c-0.199,0-0.6,0.3-0.6,0.3l-0.5-0.2l-0.4-0.2l-0.199,0.8l-0.2,1v0.8l0.3,1.2l0.301,0.5L246,93l0.199,0.7l0.4,0.5l-0.199,0.3
			l-0.101,1l0.2,0.3l-0.1,1.5l-0.101,1.3l0.3,0.1v0.8l0.2,0.2v0.6h-0.3v0.5l0.199,0.2v0.6l-0.199,0.2l0.199,0.6h0.101l0.101,0.8
			l0.199,0.2l-0.1,0.2v2.1l0.199,0.2v0.8L247,106.8v2.2l0.1,0.1l-0.1,0.3l-0.2,0.2v0.4l0.2,0.2l-0.2,0.2l0.101,0.8
			c0,0,0,0.8,0.199,0.9c0.1,0.1,0.4,0.4,0.4,0.4l0.3,0.4l-0.101,0.5H247.4v0.4l0.299,0.1l-0.1,0.3v0.5h0.1v0.2l-0.299,0.9
			l-0.301,0.4l0.1,1.6l0.101,0.3v1v0.7l0.399,0.4l0.301,0.2v1.3l-0.1,0.1v0.5l0.1,0.1v0.9l-0.2,0.7v2.1l-0.101,0.5v2.9l-0.199,0.1
			l-0.1,1.4l0.299,0.1v1.4l-0.199,0.2v1.4h-0.1v0.6h0.1v1.1l-0.1,0.1v1.3l-0.201,0.2l-0.1,1.7v1v0.9v1.1l-0.3,1l-0.101,1.7l-0.1,0.2
			v2.3l-0.1,0.1l-0.2,0.4v2.8l-0.101,0.1v0.3l0.201,0.2v0.9l-0.101,0.2v0.3l0.101,0.1v0.3l-0.101,0.1l0.101,0.8l0.1,0.7h0.1v0.4
			H246.4v0.5h0.1l0.1,0.2l0.1,2l0.101,1.4l-0.101,1.199l0.201,0.201v2.399H246.6l-0.1,0.3v0.4h0.4v0.5l-0.5,0.199
			c0,0-1.701,0.9-2.4,1.101c-0.7,0.2-4.1,1.7-4.4,1.8c-0.3,0.1-2.4,1.1-2.9,1.301c-0.5,0.199-3.299,1.299-4.299,1.799
			c-0.601,0.301-1.4,0.601-2,0.801l0,0c0,0-4.9,2.199-5.301,2.4c0,0-3.1,1.199-3.4,1.299C221.4,174.9,221,175.1,220.9,174.9
			c-0.101-0.2,0-0.5,0-0.5s0.6-0.3,0.699-0.399c0.1-0.101,0.1-0.601,0.1-0.9c0-0.4,0-0.801,0-0.801L221.5,172l0.3-0.5
			c0,0-0.101-0.4,0-0.801c0-0.5,0.2-0.699,0.2-0.699l-0.1-0.801v-0.6l0.1-0.4l0.199-0.3v-3.3l-0.1-0.301l0.1-0.5l-0.1-0.199H222
			l-0.1,0.3h-0.4V163.5l0.3-0.4v-0.801c0,0,0.399-0.299,0.5-0.5c0.101-0.199,0-1.299,0-1.299s-0.2-1-0.2-1.301
			c0-0.3,0.1-1.1,0.1-1.1l0.301-1.6l0.199-1.4l0.301-0.3v-1.1v-0.6l0.199-0.1v-0.6l0.601-0.3l0.101-0.5v-0.4v-0.6l-0.101-0.2
			l0.101-0.3h0.299V149c0,0,0.201-0.6,0.301-0.6s0.1-1.2,0.1-1.2l-0.1-0.7h-0.1l0.1-2.9c0,0-0.1-0.2-0.301-0.3
			C224,143.2,223.9,143,223.9,143v-0.8L223.8,142v-1.2c0,0,0.2-0.6,0.101-0.9c0-0.3-0.301-0.7-0.301-0.7v-0.4h0.301v-1.5h1.1
			l-0.1-0.3l0.1-0.2v-0.4c0,0-0.8-0.4-1.6-0.8c-0.801-0.4-1.101-0.5-1.101-0.5v-0.2h-0.6c0,0-0.5-0.3-0.601-0.4
			c-0.1-0.1-0.3-0.2-0.3-0.2H220.4c0,0-0.7-0.3-0.9-0.5c-0.2-0.2-0.9-0.4-0.9-0.4l-0.3-0.2l-0.7-0.2l-0.199-0.4c0,0-0.601-0.3-1-0.5
			c-0.4-0.2-0.601-0.3-1.2-0.4c-0.5-0.1-1.3-0.3-1.3-0.3l-0.5-0.2H212.8l-0.3-0.2l-0.3-0.2H211.6l-0.1-0.2l-0.2,0.1
			c0,0-0.2-0.2-0.6-0.4c-0.3-0.1-0.9-0.4-0.9-0.4s-0.5-0.2-0.7-0.2c-0.199,0-0.6,0.1-0.6,0.1s-0.5,0.1-0.6,0.2
			c0,0.1-0.301,0.2-0.301,0.2l-0.3-0.1l-0.1-0.2h-0.3L206.8,130h-0.2l-0.399-0.2c0,0-0.3,0-0.3,0.1s0,0.2,0,0.2l-0.5,0.1l-0.101,0.4
			h-0.6H204.6v-0.2h-0.3l-0.2-0.3v0.1c0,0,0.101,0.3,0,0.5c-0.1,0.2,0,0.9,0,1c0,0.1,0.2,0.5,0.2,0.5s0.101,0.2,0.101,0.4
			c0,0.1-0.101,1.1-0.101,1.1l0.2,0.6v1.4l0.2,0.2c0,0-0.101,1.4,0,1.7c0.1,0.3,0.1,1.2,0.1,1.2l-0.1,0.5v0.6l0.1,0.1v2v1.3v0.8
			l-0.1,0.2v0.7l0.6,0.1l0.101,0.4l0.3,0.1l0.2,0.2v0.5h0.1l0.1,1.601l0.101,0.1l-0.101,0.3l-0.399,0.4l0.6,0.1l0.101,1l-0.2,0.2
			l0.1,0.2c0,0-0.1,0.6-0.1,0.9s0,0.7,0,0.7H206v0.5l0.2,0.101c0,0-0.101,0.899-0.101,1.3c0,0.4,0,3.1,0,3.1h0.101
			c0,0,0.1-0.5,0.2-0.8c0.1-0.3,0.1-1.5,0.1-1.5v-0.4c0,0,0.2,0,0.3,0.1c0,0.1,0.4,0.2,0.4,0.2s0.1,0,0.1,0.3s-0.1,2-0.1,2v1.701
			c0,0-0.101,1.6-0.101,1.699s0,1.301,0,1.6c0,0.301,0,2.201,0,2.201L206.9,165c0,0-0.101,1.9-0.101,2.199c0,0.301-0.1,1-0.1,1
			l-0.2,0.701v0.699l-0.1,1.1c0,0-0.2,1.301-0.2,1.701c0,0.5-0.101,1.799-0.2,2.1c0,0.299-0.2,0.9-0.3,1.4c0,0.5-0.4,2-0.4,2
			L205,179c0,0-0.1,0.699-0.2,0.799c-0.1,0.101-0.6,0.201-0.6,0.201L204,179.4h-0.5v0.2v0.199l0.3,0.101l0.3,0.2v0.199
			c0,0-0.8,0-0.899,0.101c-0.101,0.101-0.8,0.2-1.101,0.399c-0.3,0.201-0.3,0.4-0.3,0.4l0.5,0.1c0,0,0.5,0,0.5,0.101
			s0.101,0.399,0.101,0.399H201.8v0.101l0.3,0.5l1.301,1.5c0,0,0.3,0.3,0.399,0.2c0.101-0.1,0.8-0.801,0.8-0.801l0.2,0.801l0.5,0.4
			l0.601,1.299l0.399,0.101l0.4-0.101l0.1,0.5L207,187l0.1,0.5v0.799h0.801l0.399,0.601c0,0,0.3,0,0.4,0c0.2,0,0.6-0.3,0.6-0.3v0.5
			v0.5l0.4-0.2c0,0,0.2,0.101,0.399,0.2c0.101,0.1,0.4,0.3,0.4,0.4c0,0.1,0,0.199,0,0.199h0.4l0.3,0.301l0.6,0.5l0.3-0.201
			L212.4,190c0,0,0.199,0.1,0.399,0.299c0.101,0.201,0.101,1.5,0.101,1.5h0.3c0,0,0.399-1.1,0.399-1.399c0.101-0.3,0.7-1,0.7-1h0.5
			h0.5c0,0-0.3,0.399-0.2,0.399c0.101,0,0.4,0,0.4,0l0.1-0.6l0.301-0.1c0,0,0,0.4,0.1,0.5s0.4,0.699,0.5,0.699s0.4,0,0.4,0
			l0.3-0.299c0,0,0.2,0.1,0.2,0.199s0.199,0.301,0.199,0.301l0.4-0.701c0.1,0,0.5-0.6,0.6-0.799c0.101-0.101,0-0.301,0-0.301
			l0.2-0.1l0.101-0.6c0,0,0.399-0.201,0.5-0.201c0.199,0,1-0.199,1.399-0.1c0.3,0,1,0,1.4,0.1c0.5,0.101,1.2,0.101,1.2,0.101
			l1.3,0.2l0.5-0.2h0.6c0,0,0.4,0.101,0.601,0c0.3,0,2.5-0.7,2.5-0.7l0.899-0.1c0,0,0.8-0.5,1.101-0.6c0.3-0.101,1.5-0.4,1.8-0.4
			s1.399-0.5,1.399-0.5l1-0.801l0.9-0.5h0.6l0.4-0.5l0.5,0.101l0.3-0.399l0.3-0.101l0.4,0.101l0.5-0.201l-0.4-0.1V183l0.601-0.201
			l1.2-0.799c0.399-0.101,0.6-0.201,0.8-0.301s1.8-0.699,2-0.8S244.6,180,244.6,180l1.301-0.601l0.399-0.3l0.2,0.1h0.2l0.5-0.6
			l0.2-0.1l0.1-0.301l0.4-0.1l0.199-0.301l0.301-0.199l0.399-0.2l0.5,0.2h0.4l0.1-0.5l0.101-0.2h0.5l0.3-0.2l0.3-0.199l0.5-0.301
			l0.3-0.3h0.5l0.2-0.399h0.5l0.2-0.301l0.2-0.3l0.5-0.101l0.1-0.199h0.3l0.101,0.199h0.199l0.101-0.299h0.399l0.2,0.299h0.3
			l0.5-0.1l0.5-0.3l0.5-0.101l0.5-0.199l0.5-0.2h0.5V174l0.2,0.199l0.2,0.2l-0.1,0.2l-0.301,0.1L258.1,175l-1,0.399l-0.399,0.2
			l-0.2-0.1l-0.3,0.299l-0.8,0.4l-0.601,0.1l-0.2,0.201L254.4,176.4L254.1,176.5l-0.1,0.1l-0.5,0.199V177l1.3-0.5l1.3-0.601h0.5
			l0.9-0.5l0.9-0.399l0.6-0.201l0.3-0.199l0.5-0.4H259l-0.2-0.1l0.101-0.2l0.3-0.399l0.399-0.101l0.9-0.2l0.3-0.199v0.799L260.6,174
			v0.799l-0.1,0.101l0.1,0.399h0.2l0.101-0.399l0.199-0.3l0.2-1.301h0.4l0.1,0.101h0.2l0.1-0.2V172.5H262v-0.201l0.1-0.199
			l0.301-0.1h0.3v0.799l0.1,0.101l0.2-1.3l0.6-0.1l0.301-0.101l0.199-0.3l0.4-0.1l0.4-0.101l0.199-0.2l-0.199-0.1v-0.301l0.399-0.1
			l0.101-0.1L265.1,170v-0.201l0.101-0.199c0,0,0.6-0.4,0.7-0.6c0.1-0.201,0.8-0.801,0.8-0.801l0.399-0.1l0.7-0.2
			c0,0,0.3-0.2,0.5-0.5c0.3-0.2,0.601-0.3,0.601-0.3s0.199-0.2,0.5-0.301c0.199-0.1,0.699-0.399,0.699-0.399l0.301-0.101l0.3,0.201
			l0.1-0.301c0,0,0.101-0.1,0.2-0.199c0.1,0,1-0.4,1.3-0.5c0.3-0.101,0.601-0.101,0.601-0.101l0.3-0.101h0.399V164.9h0.301
			l0.1-0.101h0.7l0.1-0.1l0.101-0.6h0.199l0.2,0.1h0.4V164h0.399l0.5-0.201l0.601-0.5v-0.5l0.2-0.199l0.399-0.1l0.3-0.201h0.4
			l0.1-0.199l0.4-0.2l0.3,0.101l0.2-0.201l0.3-0.199h0.7v-0.2l0.4-0.101h0.6l0.2-0.1h0.3l0.3-0.3h0.4h0.7h0.399l0.101-0.101h1
			l0.1-0.1h0.6l0.5-0.1l0.101-0.1l0.399-0.101l0.301,0.101h0.6l0.1-0.101h0.801v0.2l0.199-0.1h0.7v0.199l-0.1,2.6l0.1,0.101v1.7
			l0.2,0.3v3.2h-0.2v1.199h-0.2v2.301l-0.199,0.1l-0.301,0.2H288.4v0.399l0.1,0.4l0.1,0.2v0.2L288.4,174H288.3l-0.2-0.301H287.9v0.4
			H287.6l-0.199-0.2H286.8l-0.3,0.2l-0.1,0.199v0.201l0.1,0.1v0.199l-0.3,0.101l0.1,0.3l0.2,0.301v0.199h-0.3l-0.101-0.1h-0.3
			l-0.1,0.1h-0.5L285,175.5l-0.1-0.201L284.8,174.9h-0.3l-0.3-0.101V175v0.399c0,0,0.1,0.399,0.3,0.5c0.1,0.101,0.6,0.3,0.6,0.3h0.7
			v0.4l0.4,0.1l0.3,0.1l0.2,0.201L286.6,177.2l-0.3,0.301l0.3,0.199l0.2,0.1V177.5l0.4,0.1l0.1,0.1l0.4,0.2l0.399,0.5l0.101,0.3
			l0.1,0.5l0.5,0.6c0,0,0.8,0.5,1,0.801c0.2,0.3,0.9,0.9,1.101,1.1c0.199,0.2,1,0.801,1.1,0.9s0.4,0.199,0.4,0.199v0.301l0.3,0.199
			h0.2l0.1,0.4h0.5v-0.1l0.8,0.1l0.2,0.301c0,0,0.5,0.5,0.6,0.699c0,0.2,0.101,0.801,0.101,0.801l0.3,0.299h0.8l0.4,0.601l0.5,0.5
			c0,0,0.3,0.3,0.5,0.2c0.2,0,0.399-0.1,0.399-0.1l0.2,0.1l0.101,0.3v0.3L298.8,188l0.4,0.399h0.899v0.2l1.101-0.1l0.5-0.101v0.399
			l0.1,0.201v0.399l0.3-0.2l0.301,0.1l0.6,0.201l0.3-0.301l0.3-0.1h0.301l0.1-0.1l0.3,0.1h0.2v0.4h0.3l0.101-0.4h0.199l0.301,0.199
			c0,0,0.3,0.5,0.399,0.5c0.101,0,0.4-0.1,0.4-0.1v-0.3h0.5h0.7l0.199-0.101l0.301,0.301l0.1,0.3l0,0v0.2l0.2,0.1v0.2l0.2,0.101
			L308.3,190.7h0.2l0.3,0.2h0.3l0.101-0.2l0.3,0.1l0.2,0.101l0.5-0.399h0.3l0.1-0.301l0.301-0.4l0.1-0.299h0.3l0.2,0.299l0.2-0.1
			v-0.3c0,0,0.399-0.601,0.5-0.7c0-0.1,0.5-0.699,0.7-0.8c0.199-0.101,0.3-0.399,0.3-0.399l0.1-0.4l0.3-0.1
			c0,0,0.101-0.5,0.301-0.601c0.199-0.101,0.3-0.3,0.3-0.3v-0.6l0.1-0.101v-0.101h-0.1v-0.6l0.1-0.1l0.101-0.5l-0.2-0.1V182.9
			l0.3-0.101v-0.5h-0.3c0,0-0.101-0.299,0-0.5c0-0.1,0.3-0.6,0.3-0.6l0.1-0.5l-0.199-0.1l0.1-0.5h0.2v-0.6h-0.2v-0.4l0.2-0.1v-1.4
			l-0.3-0.4v-0.9l-0.2-0.1V175.5L314,175.4v-0.5l0.1-0.101V173L313.9,172.9v-1.101l0.199-0.1v-0.6l0.2-0.1l-0.1-0.602l-0.2-0.1v-0.5
			l0.2-0.1v-0.301L314,169.2v-0.301l0.1-0.299V167l-0.199-0.102L313.8,166.6l0.2-0.101l-0.1-0.8H313.8v-1.2h0.2v-2.3l0.1-0.4V159.6
			h0.2v-0.4h-0.1v-0.301L314.1,158.7V158l0.101-0.301l0.2-0.4v-0.5l-0.2-0.1v-0.4l0.2-0.1v-1l-0.2-0.3v-0.5l0.1-0.3l0.101-0.4
			l0.1-0.4l-0.1-0.1v-0.5h0.199V151H314.4v-0.4h0.199v-1l0.101-0.1l0.1-0.8l0.101-0.2l-0.101-1.4l0.2-0.1l0.1-0.5l-0.199-0.101v-0.7
			h0.199v-1.2h0.2l0.101-0.4l0.1-0.5l0.1-0.3V141l0.2-0.1v-0.3l0.101-0.1v-0.7l0.199-0.1v-1h0.2v-0.8l0.101-0.1v-1.2l0.1-0.1v-0.8
			h0.2l-0.101-1.1h0.201v-0.7H317v-0.6l0.2-0.5v-1.1l0.2-0.1l-0.1-0.7v-0.3l0.1-0.7l0.199-0.1L317,128l0.3-0.1c0,0,0.2-0.4,0.3-0.5
			c0.101-0.1,0.101-0.4,0.101-0.4v-0.3v-1L317.5,125.3z"/>
	</g>
</g>
</svg>
