<?xml version="1.0" encoding="utf-8"?>
<!-- Generator: Adobe Illustrator 16.0.0, SVG Export Plug-In . SVG Version: 6.00 Build 0)  -->
<!DOCTYPE svg PUBLIC "-//W3C//DTD SVG 1.1//EN" "http://www.w3.org/Graphics/SVG/1.1/DTD/svg11.dtd">
<svg version="1.1" id="Layer_1" xmlns="http://www.w3.org/2000/svg" xmlns:xlink="http://www.w3.org/1999/xlink" x="0px" y="0px"
	 width="474px" height="172px" viewBox="0 0 474 172" style="enable-background:new 0 0 474 172;" xml:space="preserve">
<style type="text/css">
<![CDATA[
	.st0{fill:#FFFFFF;}
	.st1{fill:#010101;}
]]>
</style>
<g id="New_Star_Logo">
	<g id="New_Star_Foodservice">
		<g id="FoodService">
			<polygon id="E" class="st0" points="450.9,171.2 450.9,141.2 471.1,141.2 471.1,147.3 457.9,147.3 457.9,153 470.3,153 
				470.3,158.8 457.9,158.8 457.9,165 471.8,165 471.8,171.2 			"/>
			<path id="C" class="st0" d="M426,170.7c-1.9,0.9-4.2,1.3-6.7,1.3c-2.3,0-4.4-0.4-6.4-1.1c-2-0.8-3.7-1.8-5.1-3.2
				c-1.4-1.4-2.6-3.1-3.4-5c-0.8-1.9-1.2-4.1-1.2-6.4c0-2.4,0.4-4.6,1.2-6.5c0.8-1.9,2-3.6,3.5-5c1.5-1.4,3.2-2.4,5.2-3.1
				c2-0.7,4.1-1.1,6.4-1.1c2.1,0,4.2,0.4,6.2,1.1c2,0.7,3.7,1.8,5,3.3l-4.9,4.9c-0.7-0.9-1.6-1.6-2.7-2.1c-1.1-0.5-2.2-0.7-3.4-0.7
				c-1.3,0-2.4,0.2-3.5,0.7c-1.1,0.5-2,1.1-2.7,1.9c-0.8,0.8-1.4,1.8-1.8,2.9c-0.4,1.1-0.6,2.3-0.6,3.7c0,1.4,0.2,2.6,0.6,3.7
				c0.4,1.1,1,2.1,1.8,2.9c0.7,0.8,1.6,1.4,2.7,1.9c1,0.4,2.2,0.7,3.4,0.7c1.4,0,2.7-0.3,3.8-0.8c1.1-0.6,1.9-1.3,2.6-2.2l5,4.7
				C429.5,168.6,427.9,169.8,426,170.7"/>
			<rect id="I" x="374.1" y="141.2" class="st0" width="7.3" height="29.9"/>
			<polygon id="V" class="st0" points="343.1,171.2 335.8,171.2 324.5,141.2 332.6,141.2 339.6,162.5 339.7,162.5 346.6,141.2 
				354.7,141.2 			"/>
			<path id="R" class="st0" d="M299.7,171.2l-6.5-11.9h-2.5v11.9h-7.1v-29.9h11.4c1.4,0,2.8,0.1,4.2,0.4c1.4,0.3,2.6,0.8,3.7,1.5
				c1.1,0.7,2,1.6,2.6,2.8c0.6,1.2,1,2.6,1,4.3c0,2-0.5,3.7-1.7,5.1c-1.1,1.4-2.6,2.4-4.6,3l7.8,12.8H299.7z M299.5,150.4
				c0-0.7-0.1-1.3-0.4-1.7c-0.3-0.4-0.7-0.8-1.2-1c-0.5-0.2-1-0.4-1.6-0.5c-0.6-0.1-1.1-0.1-1.7-0.1h-3.9v7h3.4
				c0.6,0,1.2-0.1,1.8-0.1c0.6-0.1,1.2-0.3,1.7-0.5c0.5-0.3,0.9-0.6,1.3-1.1C299.3,151.8,299.5,151.2,299.5,150.4"/>
			<polygon id="E_1_" class="st0" points="241,171.2 241,141.2 261.2,141.2 261.2,147.3 248,147.3 248,153 260.5,153 260.5,158.8 
				248,158.8 248,165 262,165 262,171.2 			"/>
			<path id="S" class="st0" d="M214.9,149c-0.6-0.8-1.4-1.4-2.4-1.9c-1-0.5-2-0.7-2.9-0.7c-0.5,0-1,0-1.5,0.1
				c-0.5,0.1-0.9,0.2-1.3,0.5c-0.4,0.2-0.7,0.6-1,0.9c-0.3,0.4-0.4,0.9-0.4,1.5c0,0.5,0.1,0.9,0.3,1.3c0.2,0.3,0.5,0.6,0.9,0.9
				c0.4,0.3,0.9,0.5,1.5,0.7c0.6,0.2,1.2,0.4,1.9,0.7c1,0.3,2.1,0.7,3.2,1.1c1.1,0.4,2.1,1,3,1.6c0.9,0.7,1.7,1.5,2.2,2.5
				c0.6,1,0.9,2.2,0.9,3.7c0,1.7-0.3,3.2-1,4.5c-0.6,1.3-1.5,2.3-2.6,3.1c-1.1,0.8-2.3,1.4-3.7,1.8c-1.4,0.4-2.8,0.6-4.3,0.6
				c-2.1,0-4.2-0.4-6.2-1.1c-2-0.7-3.7-1.8-5-3.2l4.7-4.8c0.7,0.9,1.7,1.7,2.9,2.3c1.2,0.6,2.4,0.9,3.6,0.9c0.5,0,1.1-0.1,1.6-0.2
				c0.5-0.1,1-0.3,1.3-0.6c0.4-0.3,0.7-0.6,0.9-1c0.2-0.4,0.3-0.9,0.3-1.5c0-0.6-0.1-1-0.4-1.4c-0.3-0.4-0.7-0.8-1.2-1.1
				c-0.5-0.3-1.2-0.6-1.9-0.9c-0.8-0.3-1.7-0.6-2.6-0.9c-1-0.3-1.9-0.7-2.8-1.1c-0.9-0.4-1.7-1-2.5-1.6c-0.7-0.7-1.3-1.5-1.7-2.4
				c-0.4-0.9-0.7-2.1-0.7-3.4c0-1.7,0.3-3.1,1-4.3c0.7-1.2,1.6-2.2,2.7-2.9c1.1-0.8,2.3-1.3,3.7-1.7c1.4-0.4,2.8-0.5,4.2-0.5
				c1.7,0,3.4,0.3,5.2,0.9c1.8,0.6,3.3,1.5,4.6,2.8L214.9,149z"/>
			<path id="D" class="st0" d="M177.3,156.1c0,2.6-0.5,4.9-1.5,6.8c-1,1.9-2.3,3.5-3.9,4.7c-1.6,1.2-3.4,2.1-5.4,2.7
				c-2,0.6-4,0.9-6.1,0.9h-11.2v-29.9h10.8c2.1,0,4.2,0.3,6.3,0.7c2.1,0.5,3.9,1.3,5.5,2.5c1.6,1.1,2.9,2.7,3.9,4.6
				C176.8,151,177.3,153.3,177.3,156.1 M169.8,156.1c0-1.7-0.3-3.1-0.8-4.2c-0.6-1.1-1.3-2-2.2-2.7c-0.9-0.7-2-1.1-3.1-1.4
				c-1.2-0.3-2.4-0.4-3.6-0.4h-3.6v17.5h3.4c1.3,0,2.5-0.1,3.7-0.4c1.2-0.3,2.3-0.8,3.2-1.5c0.9-0.7,1.7-1.6,2.2-2.7
				C169.5,159.2,169.8,157.8,169.8,156.1"/>
			<path id="O" class="st0" d="M127.6,156.1c0,2.4-0.4,4.5-1.2,6.5c-0.8,2-2,3.6-3.4,5c-1.5,1.4-3.2,2.5-5.2,3.2
				c-2,0.8-4.2,1.1-6.5,1.1c-2.3,0-4.5-0.4-6.5-1.1c-2-0.8-3.7-1.8-5.2-3.2c-1.5-1.4-2.6-3.1-3.4-5c-0.8-2-1.2-4.1-1.2-6.5
				c0-2.4,0.4-4.6,1.2-6.5c0.8-1.9,2-3.6,3.4-4.9c1.5-1.3,3.2-2.4,5.2-3.1c2-0.7,4.2-1.1,6.5-1.1c2.3,0,4.5,0.4,6.5,1.1
				c2,0.7,3.7,1.8,5.2,3.1c1.5,1.4,2.6,3,3.4,4.9C127.2,151.5,127.6,153.7,127.6,156.1 M119.8,156.1c0-1.3-0.2-2.5-0.6-3.6
				c-0.4-1.1-1-2.1-1.8-2.9c-0.8-0.8-1.7-1.4-2.7-1.9c-1.1-0.5-2.2-0.7-3.5-0.7c-1.3,0-2.4,0.2-3.5,0.7c-1,0.5-2,1.1-2.7,1.9
				c-0.8,0.8-1.3,1.8-1.8,2.9c-0.4,1.1-0.6,2.3-0.6,3.6c0,1.4,0.2,2.6,0.6,3.7c0.4,1.1,1,2.1,1.8,2.9c0.7,0.8,1.7,1.5,2.7,1.9
				c1,0.5,2.2,0.7,3.5,0.7c1.3,0,2.4-0.2,3.5-0.7c1-0.5,2-1.1,2.7-1.9c0.8-0.8,1.4-1.8,1.8-2.9C119.6,158.7,119.8,157.4,119.8,156.1
				"/>
			<path id="O_1_" class="st0" d="M74.6,156.1c0,2.4-0.4,4.5-1.2,6.5c-0.8,2-2,3.6-3.4,5c-1.4,1.4-3.2,2.5-5.2,3.2
				c-2,0.8-4.2,1.1-6.5,1.1c-2.3,0-4.5-0.4-6.5-1.1c-2-0.8-3.7-1.8-5.2-3.2c-1.5-1.4-2.6-3.1-3.4-5c-0.8-2-1.2-4.1-1.2-6.5
				c0-2.4,0.4-4.6,1.2-6.5c0.8-1.9,2-3.6,3.4-4.9c1.5-1.3,3.2-2.4,5.2-3.1c2-0.7,4.2-1.1,6.5-1.1c2.3,0,4.5,0.4,6.5,1.1
				c2,0.7,3.7,1.8,5.2,3.1c1.5,1.4,2.6,3,3.4,4.9C74.2,151.5,74.6,153.7,74.6,156.1 M66.8,156.1c0-1.3-0.2-2.5-0.6-3.6
				c-0.4-1.1-1-2.1-1.8-2.9c-0.7-0.8-1.7-1.4-2.7-1.9c-1.1-0.5-2.2-0.7-3.5-0.7c-1.3,0-2.4,0.2-3.5,0.7c-1,0.5-2,1.1-2.7,1.9
				c-0.8,0.8-1.3,1.8-1.8,2.9c-0.4,1.1-0.6,2.3-0.6,3.6c0,1.4,0.2,2.6,0.6,3.7c0.4,1.1,1,2.1,1.8,2.9c0.8,0.8,1.6,1.5,2.7,1.9
				c1,0.5,2.2,0.7,3.5,0.7c1.3,0,2.4-0.2,3.5-0.7c1-0.5,2-1.1,2.7-1.9c0.8-0.8,1.4-1.8,1.8-2.9C66.6,158.7,66.8,157.4,66.8,156.1"/>
			<polygon id="F" class="st0" points="9.1,147.4 9.1,153.6 20.8,153.6 20.8,159.6 9.1,159.6 9.1,171.2 2,171.2 2,141.2 21.7,141.2 
				21.7,147.4 			"/>
		</g>
		<g id="New_Star">
			<g id="Star_1_">
				<path id="R_1_" class="st0" d="M419.5,54.5c1.5-0.3,3.2-0.5,5-0.7c1.8-0.2,3.6-0.4,5.5-0.5c1.8-0.1,3.6-0.2,5.4-0.3
					c1.7-0.1,3.4-0.1,4.8-0.1c3.4,0,6.7,0.3,10,0.9c3.3,0.6,6.2,1.6,8.8,3c2.6,1.4,4.7,3.3,6.2,5.8c1.6,2.4,2.4,5.5,2.4,9.2
					c0,5.5-1.3,9.9-4,13.5c-2.7,3.5-6.4,5.9-11.2,7.2l5.1,2.9l16.7,25.2h-16.4L441,94.6l-7.4-1.1v26.9h-14.1V54.5z M441.1,65.2
					c-1.5,0-2.9,0-4.2,0.1c-1.4,0-2.5,0.1-3.3,0.3V84h6c4,0,7.2-0.8,9.5-2.3c2.3-1.5,3.5-4.1,3.5-7.9c0-2.8-1-4.9-3-6.4
					C447.6,66,444.8,65.2,441.1,65.2"/>
				<path id="A" class="st0" d="M390.2,106.3h-22.5l-5.4,14.2h-14.1l26.1-67.1h10.4l26.2,67.1h-15L390.2,106.3z M371.6,95.1h15.2
					l-5.1-13.9l-2.3-10.6H379l-2.3,10.7L371.6,95.1z"/>
				<polygon id="T" class="st0" points="352.9,66.2 331.7,66.2 331.7,120.4 317.6,120.4 317.6,66.2 296.4,66.2 296.4,53.8 
					352.9,53.8 				"/>
				<path id="S_1_" class="st0" d="M275.6,102.2c0-2-0.8-3.5-2.5-4.7c-1.6-1.1-3.7-2.2-6.1-3.1c-2.4-0.9-5.1-1.9-8-2.9
					c-2.9-0.9-5.5-2.2-8-3.8c-2.4-1.6-4.5-3.6-6.1-6c-1.7-2.4-2.5-5.5-2.5-9.4c0-3.3,0.6-6.2,1.8-8.7s2.8-4.6,5-6.2
					c2.1-1.6,4.7-2.8,7.7-3.7c3-0.8,6.3-1.2,10-1.2c4.2,0,8.2,0.4,12,1.1c3.8,0.7,6.9,1.8,9.3,3.1l-4.5,11.8
					c-0.8-0.4-1.7-0.9-2.9-1.4c-1.2-0.5-2.5-0.9-4.1-1.2c-1.5-0.4-3.1-0.6-4.9-0.9c-1.7-0.2-3.5-0.3-5.2-0.3c-3.2,0-5.6,0.6-7.4,1.7
					c-1.7,1.1-2.6,2.6-2.6,4.6c0,2,0.8,3.5,2.5,4.7c1.6,1.2,3.7,2.3,6.1,3.2c2.4,1,5.1,2,8,3c2.9,1,5.5,2.3,8,3.8
					c2.5,1.6,4.5,3.5,6.1,5.9c1.7,2.3,2.5,5.4,2.5,9c0,3.7-0.6,6.9-1.9,9.5c-1.3,2.7-3.1,4.9-5.4,6.6c-2.3,1.7-5.1,3-8.3,3.9
					c-3.2,0.8-6.8,1.2-10.7,1.2c-2.6,0-5.1-0.1-7.4-0.4c-2.3-0.3-4.5-0.6-6.4-1c-2-0.4-3.7-0.9-5.2-1.3c-1.5-0.5-2.7-0.9-3.6-1.4
					l4.7-11.9c0.7,0.4,1.7,0.8,2.9,1.2c1.2,0.4,2.6,0.9,4.1,1.3c1.5,0.4,3.2,0.8,4.9,1c1.8,0.3,3.5,0.4,5.3,0.4
					c4.2,0,7.4-0.6,9.6-1.8S275.6,104.7,275.6,102.2"/>
			</g>
			<g id="New">
				<polygon id="W" class="st0" points="145.5,90.5 146.9,102.3 147.3,102.3 148.8,90.3 161.5,53.8 170.6,53.8 183.1,90.5 
					184.6,102.3 185.1,102.3 186.5,90.3 195.4,53.8 209.9,53.8 189.9,120.9 180.3,120.9 167.4,84.7 165.7,74.4 165,74.4 163.3,84.8 
					150.4,120.9 140.4,120.9 120.5,53.8 135.9,53.8 				"/>
				<polygon id="E_2_" class="st0" points="70.3,53.8 113.3,53.8 113.3,66.2 84.4,66.2 84.4,80.7 110.7,80.7 110.7,93 84.4,93 
					84.4,108.1 113.8,108.1 113.8,120.4 70.3,120.4 				"/>
				<polygon id="N" class="st0" points="18,85.7 12.3,75.7 11.8,75.7 13.3,85.8 13.3,120.4 0,120.4 0,53.3 10.2,53.3 37.7,88.8 
					43.2,98.5 43.7,98.5 42.2,88.7 42.2,53.8 55.6,53.8 55.6,120.9 45.4,120.9 				"/>
			</g>
		</g>
	</g>
	<path id="Arc" class="st0" d="M5.2,45.1c0,0,335.4-107.9,447.5,10.2c11.1,11.7,7.6,14.4,5.3,12.3c-1.8-1.6-20.3,4.4-20.3,4.4
		S349.4-46.1,5.2,45.1"/>
	<polygon id="Star" class="st1" points="448.8,63.9 442.2,50.2 435.9,63.8 421.2,65.9 431.9,76.2 429.2,91 442.3,83.8 455.1,91 
		452.5,76.2 463.3,65.9 	"/>
</g>
</svg>
